<svg id="Guide" xmlns="http://www.w3.org/2000/svg" viewBox="0 0 128 128"><defs><style>.cls-1{fill:#000048;}</style></defs><path class="cls-1" d="M91,82.33a2,2,0,1,0,3.57-1.8l-28.13-55H90.83a2,2,0,0,0,1.56-3.25l-5.78-7.18L92.39,7.9a2,2,0,0,0-1.56-3.26H62.6a2,2,0,0,0-2,2s0,0,0,0V22L7.74,120.41a2,2,0,0,0,.81,2.71,2.06,2.06,0,0,0,.95.24,2,2,0,0,0,1.76-1.06L62.55,26.78ZM82.48,13.82a2,2,0,0,0,0,2.51l4.17,5.17h-22V8.64h22Z"/><path class="cls-1" d="M117.31,97.44A13,13,0,0,0,110,94.66c-.25-7.73-2.43-13.82-16.94-13.82H74.37c-9,0-14.2,4.76-14.88,13.47H47.41a10.17,10.17,0,0,0-9.26,4.89,11.53,11.53,0,0,0-.34,11.28A7.89,7.89,0,0,0,45,114.61H109.3c7,0,11.2-5.24,11.2-10.31A8.88,8.88,0,0,0,117.31,97.44Zm-8,13.17H45a4,4,0,0,1-3.68-2.1,7.62,7.62,0,0,1,.29-7.24,6,6,0,0,1,5.52-3H61.42a2,2,0,0,0,2-2c0-7.83,3.48-11.47,11-11.47H93.08c12.39,0,13,4,13,11.72a2,2,0,0,0,2,2c2.88,0,5.19.67,6.67,1.93a4.87,4.87,0,0,1,1.78,3.81C116.5,107.4,113.8,110.61,109.3,110.61Z"/></svg>