<?xml version="1.0" encoding="UTF-8"?>
<svg id="midnight_blue" data-name="midnight blue" xmlns="http://www.w3.org/2000/svg" version="1.1" viewBox="0 0 513 513">
  <defs>
    <style>
      .cls-1 {
        stroke-linecap: round;
        stroke-linejoin: round;
      }

      .cls-1, .cls-2 {
        fill: none;
        stroke-width: 4px;
      }

      .cls-1, .cls-2, .cls-3 {
        stroke: #000048;
      }

      .cls-2, .cls-3 {
        stroke-miterlimit: 10;
      }

      .cls-3 {
        fill: #000048;
      }
    </style>
  </defs>
  <g>
    <line class="cls-1" x1="254.6" y1="473.1" x2="254.6" y2="398.7"/>
    <polygon class="cls-3" points="271 459.9 268.1 457.2 254.6 471.6 241.2 457.2 238.3 459.9 254.6 477.5 271 459.9"/>
  </g>
  <g>
    <line class="cls-1" x1="469.5" y1="258.2" x2="395" y2="258.2"/>
    <polygon class="cls-3" points="456.3 241.9 453.5 244.8 468 258.2 453.5 271.7 456.3 274.6 473.9 258.2 456.3 241.9"/>
  </g>
  <g>
    <line class="cls-1" x1="43.5" y1="258.2" x2="118" y2="258.2"/>
    <polygon class="cls-3" points="56.7 274.6 59.5 271.7 45 258.3 59.5 244.8 56.7 241.9 39.1 258.3 56.7 274.6"/>
  </g>
  <g>
    <line class="cls-1" x1="406.8" y1="410.4" x2="354.1" y2="357.8"/>
    <polygon class="cls-3" points="409 389.5 405 389.6 405.7 409.3 386 408.6 385.9 412.6 409.9 413.5 409 389.5"/>
  </g>
  <g>
    <line class="cls-1" x1="102.4" y1="410.4" x2="155.1" y2="357.8"/>
    <polygon class="cls-3" points="123.4 412.6 123.2 408.6 103.5 409.3 104.3 389.6 100.3 389.5 99.4 413.5 123.4 412.6"/>
  </g>
  <g>
    <line class="cls-1" x1="254.6" y1="39.9" x2="254.6" y2="114.4"/>
    <polygon class="cls-3" points="238.3 53.2 241.2 55.9 254.6 41.4 268.1 55.9 271 53.2 254.6 35.6 238.3 53.2"/>
  </g>
  <g>
    <line class="cls-1" x1="406.8" y1="102.6" x2="354.1" y2="155.3"/>
    <polygon class="cls-3" points="385.9 100.4 386 104.4 405.7 103.7 405 123.4 409 123.6 409.9 99.6 385.9 100.4"/>
  </g>
  <g>
    <line class="cls-1" x1="102.4" y1="102.6" x2="155.1" y2="155.3"/>
    <polygon class="cls-3" points="100.3 123.6 104.3 123.4 103.5 103.7 123.2 104.4 123.4 100.4 99.4 99.6 100.3 123.6"/>
  </g>
  <g>
    <circle class="cls-2" cx="253.7" cy="196.3" r="40.2"/>
    <path class="cls-2" d="M325.6,323.8c8.1,0,14.2-7.3,12.7-15.3-7.2-40.2-42.3-70.7-84.6-70.7s-77.4,30.5-84.6,70.7c-1.4,8,4.7,15.3,12.7,15.3h143.8Z"/>
  </g>
</svg>