<?xml version="1.0" encoding="UTF-8"?>
<svg id="midnight_blue" data-name="midnight blue" xmlns="http://www.w3.org/2000/svg" version="1.1" viewBox="0 0 513 513">
  <defs>
    <style>
      .cls-1 {
        stroke-linecap: round;
      }

      .cls-1, .cls-2 {
        fill: none;
        stroke: #000048;
        stroke-miterlimit: 10;
        stroke-width: 4px;
      }
    </style>
  </defs>
  <path class="cls-2" d="M439.3,340.1v130.5c0,3.6-2.9,6.4-6.4,6.4h-45c-3.6,0-6.4-2.9-6.4-6.4v-250.8c0-3.6,2.9-6.4,6.4-6.4h45c3.6,0,6.4,2.9,6.4,6.4v120.3h0Z"/>
  <path class="cls-2" d="M281.7,406.3v64.3c0,3.6,2.9,6.4,6.4,6.4h45c3.6,0,6.4-2.9,6.4-6.4v-186.5c0-3.6-2.9-6.4-6.4-6.4h-45c-3.6,0-6.4,2.9-6.4,6.4v122.2h0Z"/>
  <path class="cls-2" d="M178.8,449.8v20.9c0,3.6,2.9,6.4,6.4,6.4h45c3.6,0,6.4-2.9,6.4-6.4v-128.6c0-3.6-2.9-6.4-6.4-6.4h-45c-3.6,0-6.4,2.9-6.4,6.4v107.8h0Z"/>
  <path class="cls-2" d="M77.4,461.2v12.1c0,2.1,2.9,3.7,6.4,3.7h45c3.6,0,6.4-1.7,6.4-3.7v-74.5c0-2.1-2.9-3.7-6.4-3.7h-45c-3.6,0-6.4,1.7-6.4,3.7v62.4Z"/>
  <g>
    <path class="cls-2" d="M158.4,133.3l-32.5,16.2c-4,2-7.4,5-9.9,8.7l-12.4,18.6c-5.2,7.8-15.9,9.6-23.4,4h0c-6.7-5.1-8.5-14.4-4.1-21.6l13.2-21.5c3.1-5,7.6-9.1,13-11.5l64.4-29.4c2.9-1.3,6.2-1.1,8.9.5l21.6,13c3.7,2.2,5.4,6.6,4.3,10.8l-15.9,56.7c-1.8,6.2.4,12.9,5.4,17l39.6,31.8c5,4,7.5,10.4,6.7,16.8l-6.5,51.2c-.9,7.1-7,12.5-14.1,12.5h0c-8,0-14.4-6.6-14.2-14.6l.9-39.5c0-2.3-1.3-4.4-3.4-5.3l-56.7-23.7c-9.9-4.1-15.8-14.5-14.3-25.1l3.9-27"/>
    <path class="cls-1" d="M216.3,139.7l6.4,7.9c2.1,2.5,5.2,4.1,8.4,4.1l27.2.6c8.8.2,15.9,7.4,15.9,16.2h0c0,9-7.3,16.2-16.2,16.2h-25.3c-4.4,0-8.7-1.1-12.5-3.3l-16.7-9.5"/>
    <path class="cls-1" d="M126.2,242.6l-11.4,28.6c-1,2.4-2.3,4.6-4.1,6.5l-11.7,12.8c-5.3,5.9-5.8,14.7-1.1,21.1h0c5.5,7.6,16.3,9.1,23.7,3.3l20-15.6c2.6-2,4.6-4.6,6-7.5l17.2-36.3"/>
    <circle class="cls-2" cx="216.2" cy="66.4" r="30.4"/>
  </g>
</svg>