<svg id="Guide" xmlns="http://www.w3.org/2000/svg" viewBox="0 0 128 128"><defs><style>.cls-1{fill:#000048;}</style></defs><path class="cls-1" d="M77.47,61.44a2,2,0,0,0-2.81.32L66,72.72V51.19a2,2,0,0,0-4,0V63.7L53.15,52.51A2,2,0,1,0,50,55l11.8,14.93.18.18v51.42a2,2,0,0,0,4,0V79.16L77.8,64.25A2,2,0,0,0,77.47,61.44Z"/><path class="cls-1" d="M89.45,16.73a2,2,0,0,0-2-1.63,22.38,22.38,0,0,0-12.11,3.47.57.57,0,0,1-.84-.24A46.07,46.07,0,0,0,65.82,5.25a2.55,2.55,0,0,0-3.64,0,46.07,46.07,0,0,0-8.65,13.08.57.57,0,0,1-.84.24,22.09,22.09,0,0,0-11.6-3.45,2.55,2.55,0,0,0-2.63,2.21c-.64,5,1.46,13.32,6.82,19.77A23.44,23.44,0,0,0,63.7,45.92h.59A23.49,23.49,0,0,0,82.73,37.1C88.31,30.38,90.35,21.59,89.45,16.73Zm-9.8,17.81a22.16,22.16,0,0,1-2.78,2.8A19.7,19.7,0,0,1,73,39.92a19.2,19.2,0,0,1-8.68,2H63.7a19.19,19.19,0,0,1-8.67-2,19.7,19.7,0,0,1-3.9-2.58,22.16,22.16,0,0,1-2.78-2.8,26.2,26.2,0,0,1-6-14.67.56.56,0,0,1,.64-.58,16.56,16.56,0,0,1,8.77,3.57,17.71,17.71,0,0,1,2.47,2.51.57.57,0,0,0,1-.21c.33-1.1.73-2.23,1.18-3.39A44.71,44.71,0,0,1,63.55,9.69a.59.59,0,0,1,.89,0,44.49,44.49,0,0,1,7.15,12.08c.45,1.16.85,2.29,1.18,3.39a.57.57,0,0,0,1,.21,17.14,17.14,0,0,1,2.47-2.5A16.48,16.48,0,0,1,85,19.29a.56.56,0,0,1,.64.58A26.13,26.13,0,0,1,79.65,34.54Z"/><path class="cls-1" d="M28.91,71a10.56,10.56,0,0,1-4.72-1.11,9.11,9.11,0,0,1-3.69-13.2,10.7,10.7,0,0,1,5.77-4.46,10.68,10.68,0,0,1-2.36-6.89,9.12,9.12,0,0,1,10.36-9A10.76,10.76,0,0,1,41.1,40a27,27,0,0,1,6.1,17.93,1.93,1.93,0,0,1-.3,1,27,27,0,0,1-15,11.59A11.15,11.15,0,0,1,28.91,71Zm4.17-30.71a5.11,5.11,0,0,0-3.4,1.23h0a5.25,5.25,0,0,0-1.77,3.91A6.77,6.77,0,0,0,29.61,50a10.8,10.8,0,0,0,2.2,1.9,2,2,0,0,1,.81,2.24,2,2,0,0,1-1.91,1.43,10.62,10.62,0,0,0-2.88.37,6.79,6.79,0,0,0-3.94,2.87A5.1,5.1,0,0,0,26,66.26a6.76,6.76,0,0,0,4.86.42,22.72,22.72,0,0,0,12.37-9.4,22.71,22.71,0,0,0-5.13-14.66,6.72,6.72,0,0,0-4.29-2.34A5.53,5.53,0,0,0,33.08,40.24ZM28.37,40h0Z"/><path class="cls-1" d="M99.09,71a11.15,11.15,0,0,1-3-.42,27,27,0,0,1-15-11.59h0a2,2,0,0,1-.3-1.06A26.91,26.91,0,0,1,86.9,40c3.75-4.32,10-5,14-1.55h0c3.89,3.37,4.2,9.43.79,13.73a10.7,10.7,0,0,1,5.77,4.46,9.11,9.11,0,0,1-3.69,13.2A10.56,10.56,0,0,1,99.09,71ZM84.79,57.28a22.72,22.72,0,0,0,12.37,9.4,6.76,6.76,0,0,0,4.86-.42,5.1,5.1,0,0,0,2.09-7.5,6.76,6.76,0,0,0-3.94-2.87,10.62,10.62,0,0,0-2.88-.37,2,2,0,0,1-1.91-1.43,2,2,0,0,1,.81-2.24,10.5,10.5,0,0,0,2.2-1.9c2.3-2.65,2.27-6.45-.07-8.48h0c-2.33-2-6.1-1.51-8.4,1.15A22.71,22.71,0,0,0,84.79,57.28Z"/><path class="cls-1" d="M33.15,97.34H32.8a2,2,0,0,1-2-2c0-9.44,1.74-15.31,5.49-19A11.06,11.06,0,1,1,51.87,92h0C48.22,95.65,42.26,97.34,33.15,97.34ZM44.08,77.11a7,7,0,0,0-5,2c-2.65,2.63-4,7.15-4.26,14.17,7-.18,11.55-1.51,14.2-4.13h0a7.06,7.06,0,0,0-5-12.08Z"/><path class="cls-1" d="M94.85,97.34c-9.11,0-15.07-1.69-18.72-5.31a11.06,11.06,0,0,1,7.74-18.92h0a10.94,10.94,0,0,1,7.78,3.2c3.75,3.71,5.45,9.58,5.49,19a2,2,0,0,1-.58,1.41,2,2,0,0,1-1.41.6ZM83.92,77.11h0A7.06,7.06,0,0,0,79,89.19h0c2.65,2.62,7.19,4,14.2,4.13-.24-7-1.61-11.54-4.26-14.17A7,7,0,0,0,83.92,77.11Z"/></svg>