<svg id="Guide" xmlns="http://www.w3.org/2000/svg" viewBox="0 0 128 128"><defs><style>.cls-1{fill:#000048;}</style></defs><path class="cls-1" d="M37.48,95.49h-31a2,2,0,0,1-2-2V8.54a2,2,0,0,1,4,0V91.49h29a2,2,0,1,1,0,4Z"/><path class="cls-1" d="M121.49,95.49H62.38a2,2,0,0,1,0-4h59.11a2,2,0,0,1,0,4Z"/><path class="cls-1" d="M19.62,84.18a2,2,0,0,1-2-2V46a2,2,0,0,1,4,0V82.18A2,2,0,0,1,19.62,84.18Z"/><path class="cls-1" d="M118.37,84.18a2,2,0,0,1-2-2V66a2,2,0,0,1,4,0V82.18A2,2,0,0,1,118.37,84.18Z"/><path class="cls-1" d="M108.11,51.73A30.62,30.62,0,1,0,58.25,79.84l0,0L29.9,118.27a2,2,0,0,0,.42,2.8,2,2,0,0,0,1.19.39,2,2,0,0,0,1.61-.81l28.32-38.4a.25.25,0,0,1,0-.07,30.26,30.26,0,0,0,16.28,4.75,31.61,31.61,0,0,0,4.64-.35,30.63,30.63,0,0,0,25.71-34.85ZM99.25,72.1h0a26.51,26.51,0,0,1-9.92,8.23V42.22a2,2,0,0,0-4,0V81.84a26,26,0,0,1-3.52.78A26.42,26.42,0,0,1,68.39,81.2V57a2,2,0,0,0-4,0V79.28c-.8-.47-1.59-1-2.36-1.55A26.62,26.62,0,0,1,73.85,30a27.57,27.57,0,0,1,4-.3A26.62,26.62,0,0,1,99.25,72.1Z"/><path class="cls-1" d="M37.74,84.18a2,2,0,0,1-2-2V21a2,2,0,1,1,4,0v61.2A2,2,0,0,1,37.74,84.18Z"/></svg>