<?xml version="1.0" encoding="UTF-8"?>
<svg id="midnight_blue" data-name="midnight blue" xmlns="http://www.w3.org/2000/svg" version="1.1" viewBox="0 0 513 513">
  <defs>
    <style>
      .cls-1 {
        fill: none;
        stroke: #000048;
        stroke-miterlimit: 10;
        stroke-width: 4px;
      }
    </style>
  </defs>
  <g>
    <circle class="cls-1" cx="401.9" cy="244.6" r="36.5"/>
    <path class="cls-1" d="M343.6,360.3h123.5c7.3,0,12.9-6.7,11.6-13.9-6.5-36.5-38.4-64.2-76.8-64.2s-54.2,24.6-54,21.7"/>
  </g>
  <g>
    <circle class="cls-1" cx="111.1" cy="244.6" r="36.5"/>
    <path class="cls-1" d="M169.4,360.3H45.9c-7.3,0-12.9-6.7-11.6-13.9,6.5-36.5,38.4-64.2,76.8-64.2s40,8.3,54,21.7"/>
  </g>
  <g>
    <circle class="cls-1" cx="255.6" cy="202.5" r="49.8"/>
    <path class="cls-1" d="M344.6,360.3c10,0,17.6-9.1,15.8-18.9-8.9-49.7-52.4-87.5-104.8-87.5s-95.8,37.8-104.8,87.5c-1.8,9.9,5.8,18.9,15.8,18.9h178Z"/>
  </g>
  <rect class="cls-1" x="283.1" y="288.8" width="23.8" height="23.8" rx="1.4" ry="1.4"/>
  <path class="cls-1" d="M131.4,306.1h-11.2c-.5,0-1,.3-1.2.7l-5.6,9.7c-.3.4-.3,1,0,1.4l5.6,9.7c.3.4.7.7,1.2.7h11.2c.5,0,1-.3,1.2-.7l5.6-9.7c.3-.4.3-1,0-1.4l-5.6-9.7c-.3-.4-.7-.7-1.2-.7Z"/>
  <path class="cls-1" d="M432,309.3l-9.1,15.8c-.8,1.4.2,3.2,1.8,3.2h18.3c1.6,0,2.7-1.8,1.8-3.2l-9.1-15.8c-.8-1.4-2.9-1.4-3.7,0Z"/>
</svg>