<svg id="Guide" xmlns="http://www.w3.org/2000/svg" viewBox="0 0 128 128"><defs><style>.cls-1{fill:none;}.cls-2{fill:#000048;}</style></defs><path class="cls-1" d="M31,67l27.86,0h-.15a16.44,16.44,0,0,1,14.64,0H101a10.94,10.94,0,0,0-.34-21.87H31.35A10.94,10.94,0,0,0,31,67Z"/><path class="cls-1" d="M72.39,71.06h0a12.51,12.51,0,0,0-12.68,0h0A12.57,12.57,0,0,0,60,92.92h0a12.56,12.56,0,0,0,12.09,0h.05a12.56,12.56,0,0,0,.27-21.85Z"/><path class="cls-1" d="M40.86,41.17H91.11A10.25,10.25,0,0,0,101,30.94V29.55A10.26,10.26,0,0,0,90.77,19.3H41.2A10.26,10.26,0,0,0,31,29.55v1.39A10.25,10.25,0,0,0,40.86,41.17Z"/><polygon class="cls-1" points="110.51 67.28 110.52 67.28 110.51 67.28 110.51 67.28"/><path class="cls-1" d="M91.11,96.93l-.34,0-11.88,0H73a16.4,16.4,0,0,1-13.92,0H40.75A10.24,10.24,0,0,0,31,107.16v1.39A10.25,10.25,0,0,0,41.2,118.8H90.77A10.25,10.25,0,0,0,101,108.55v-1.39A10.26,10.26,0,0,0,91.11,96.93Z"/><polygon class="cls-1" points="78.33 92.93 78.3 92.94 78.33 92.94 78.33 92.93"/><path class="cls-1" d="M107.93,71l-29.37,0a16.47,16.47,0,0,1-.17,21.85h29.54a10.95,10.95,0,0,0,0-21.89Z"/><path class="cls-1" d="M53.89,92.94h-.23a16.47,16.47,0,0,1-.16-21.84c.29,0-29.42,0-29.42,0a10.95,10.95,0,0,0,0,21.89H53.89Z"/><polygon class="cls-1" points="110.51 67.28 110.52 67.28 110.51 67.28 110.51 67.28"/><path class="cls-2" d="M110.56,67.29h0a14.93,14.93,0,0,0-9.86-26.11A14.19,14.19,0,0,0,105,30.94V29.55A14.26,14.26,0,0,0,90.77,15.3H41.2A14.26,14.26,0,0,0,27,29.55v1.39a14.19,14.19,0,0,0,4.35,10.23,14.93,14.93,0,0,0-9.86,26.11l.36,0-.31,0a14.94,14.94,0,0,0,2.58,29.65H31.3A14.2,14.2,0,0,0,27,107.16v1.39A14.26,14.26,0,0,0,41.2,122.8H90.77A14.26,14.26,0,0,0,105,108.55v-1.39a14.19,14.19,0,0,0-4.35-10.23h7.27a14.94,14.94,0,0,0,2.63-29.64ZM31,30.94V29.55A10.26,10.26,0,0,1,41.2,19.3H90.77A10.26,10.26,0,0,1,101,29.55v1.39a10.25,10.25,0,0,1-9.9,10.23H40.86A10.25,10.25,0,0,1,31,30.94ZM20.41,56.12A11,11,0,0,1,31.35,45.17h69.27A10.94,10.94,0,0,1,101,67H73.35a16.44,16.44,0,0,0-14.64,0h.15L31,67A10.94,10.94,0,0,1,20.41,56.12ZM72.12,92.91h-.05a12.56,12.56,0,0,1-12.09,0h0a12.57,12.57,0,0,1-.3-21.85h0a12.51,12.51,0,0,1,12.68,0h0a12.56,12.56,0,0,1-.27,21.85Zm6.21,0h0Zm-54.25,0a10.95,10.95,0,0,1,0-21.89s29.71,0,29.42,0a16.47,16.47,0,0,0,.16,21.84H24.08ZM101,107.16v1.39A10.25,10.25,0,0,1,90.77,118.8H41.2A10.25,10.25,0,0,1,31,108.55v-1.39a10.24,10.24,0,0,1,9.79-10.22H59.07a16.4,16.4,0,0,0,13.92,0h5.9l11.88,0,.34,0A10.26,10.26,0,0,1,101,107.16Zm6.92-14.23H78.39a16.47,16.47,0,0,0,.17-21.85l29.37,0a10.95,10.95,0,0,1,0,21.89Z"/><polygon class="cls-2" points="78.33 92.93 78.3 92.94 78.33 92.94 78.33 92.93"/><path class="cls-2" d="M114.51,23.76a9.28,9.28,0,1,1,9.28-9.28A9.3,9.3,0,0,1,114.51,23.76Zm0-14.56a5.28,5.28,0,1,0,5.28,5.28A5.29,5.29,0,0,0,114.51,9.2Z"/><path class="cls-2" d="M13.49,118.71a9.28,9.28,0,1,1,9.28-9.28A9.29,9.29,0,0,1,13.49,118.71Zm0-14.56a5.28,5.28,0,1,0,5.28,5.28A5.29,5.29,0,0,0,13.49,104.15Z"/></svg>