<svg id="Guide" xmlns="http://www.w3.org/2000/svg" viewBox="0 0 128 128"><defs><style>.cls-1{fill:#000048;}</style></defs><path class="cls-1" d="M94.15,38.88,65.22,5.37a2.06,2.06,0,0,0-3,0L33.27,38.88a2,2,0,0,0,1.52,3.31H52.37L52,66.82a2,2,0,0,0,2,2h0a2,2,0,0,0,2-2l.39-26.57a2,2,0,0,0-1.67-2,2.09,2.09,0,0,0-.72-.13H39.16L63.71,9.74,88.26,38.19H74.78l-.36,0-.3,0h0a2,2,0,0,0-2,2l-.51,41.51a2,2,0,0,0,2,2h0a2,2,0,0,0,2-2l.47-39.54H92.63A2,2,0,0,0,94.45,41,2,2,0,0,0,94.15,38.88Z"/><path class="cls-1" d="M63.47,76.65,41.52,51.22a2.06,2.06,0,0,0-3,0L16.55,76.65A2,2,0,0,0,18.07,80H30.94l-.28,41.33a2,2,0,0,0,2,2H47.5a2,2,0,0,0,2-2L49.87,80H62a2,2,0,0,0,1.51-3.3ZM48.41,76a2.3,2.3,0,0,0-.26,0,1.9,1.9,0,0,0-.25,0h0a2,2,0,0,0-2,2l-.37,41.35H34.67L35,78a2,2,0,0,0-1.65-2,1.91,1.91,0,0,0-.64-.12H22.43L40,55.59,57.59,76Z"/><path class="cls-1" d="M111.45,90.14l-22-25.43a2.07,2.07,0,0,0-3,0L64.53,90.14A2,2,0,0,0,66,93.45H78.91l-.28,27.82a2,2,0,0,0,.58,1.43,2,2,0,0,0,1.42.59H95.48a2,2,0,0,0,2-2l.36-27.87h12.09a2,2,0,0,0,1.52-3.31Zm-15.06-.69-.26,0-.24,0a2,2,0,0,0-2,2l-.36,27.87H82.65l.28-27.75a2,2,0,0,0-1.66-2,1.9,1.9,0,0,0-.63-.11H70.41L88,69.08l17.58,20.37Z"/></svg>