<svg id="Guide" xmlns="http://www.w3.org/2000/svg" viewBox="0 0 128 128"><defs><style>.cls-1{fill:#000048;}</style></defs><path class="cls-1" d="M64.29,123.12h-.58a2,2,0,0,1-.64-.11,111.33,111.33,0,0,1-25-13.07C21.42,98.3,12.63,84.2,12.63,69.17c0-18.51,1.13-47.91,1.14-48.21a2,2,0,0,1,1.43-1.84L63.33,5a2.1,2.1,0,0,1,.56-.08h.22a2.1,2.1,0,0,1,.56.08L112.8,19.12A2,2,0,0,1,114.23,21c0,.3,1.14,29.7,1.14,48.21,0,15-8.79,29.13-25.4,40.77a111.33,111.33,0,0,1-25,13.07A2,2,0,0,1,64.29,123.12ZM17.71,22.55c-.22,6.13-1.08,30.53-1.08,46.62,0,31.7,42.94,48.3,47.37,49.92,4.43-1.62,47.37-18.22,47.37-49.92,0-16.09-.86-40.49-1.08-46.62L64,8.94Z"/><path class="cls-1" d="M71.72,40.48,49.26,15.89a2.06,2.06,0,0,0-2.95,0L23.85,40.48a2,2,0,0,0,1.48,3.34H36.44l-.3,61.77a2,2,0,0,0,2,2h0a2,2,0,0,0,2-2l.32-63.71a2,2,0,0,0-1.85-2,1.91,1.91,0,0,0-.58-.1H29.86L47.78,20.2,65.7,39.82H57.86a2.81,2.81,0,0,0-2.43,2.33v21.4a2,2,0,0,0,4,0V43.82H70.24a2,2,0,0,0,1.48-3.34Z"/><path class="cls-1" d="M107.49,68.68,82.91,46.22a2,2,0,0,0-3.35,1.48V58.76H76.28c-23.52,0-38.13,13.32-38.13,34.77v14.15a2,2,0,0,0,4,0V93.53c0-19.27,12.76-30.77,34.13-30.77H81.5a2,2,0,0,0,2-1.83,1.82,1.82,0,0,0,.08-.52V52.23l19.62,17.93L83.56,88.08V80.23a2,2,0,0,0-.08-.55,1.64,1.64,0,0,0,0-.23,2,2,0,0,0-2-2H77.09c-21.46,0-21.46,17.26-21.46,28.69V117a2,2,0,0,0,4,0V106.14c0-14.46,1.25-24.69,17.46-24.69h2.47V92.61a2,2,0,0,0,1.19,1.83,1.93,1.93,0,0,0,.81.17,2,2,0,0,0,1.35-.52l24.58-22.46a2,2,0,0,0,0-2.95Z"/></svg>