<?xml version="1.0" encoding="utf-8"?>
<!-- Generator: Adobe Illustrator 27.8.1, SVG Export Plug-In . SVG Version: 6.00 Build 0)  -->
<svg version="1.1" id="Layer_1" xmlns="http://www.w3.org/2000/svg" xmlns:xlink="http://www.w3.org/1999/xlink" x="0px" y="0px"
	 viewBox="0 0 1600 900" style="enable-background:new 0 0 1600 900;" xml:space="preserve">
<style type="text/css">
	.st0{fill:#FFFFFF;}
	.st1{fill:none;stroke:#002677;stroke-width:33.759;}
	.st2{fill:#002677;}
	.st3{fill:#FEDB00;}
	.st4{clip-path:url(#SVGID_00000092421050919066680730000006801903657977708968_);fill:#002677;}
	.st5{clip-path:url(#SVGID_00000177475644516770907310000006249037599059042947_);fill:#002677;}
	.st6{clip-path:url(#SVGID_00000049911424558785179600000004821123635927701925_);fill:#002677;}
	.st7{clip-path:url(#SVGID_00000083796571199068822890000012800523642697449102_);fill:#002677;}
	.st8{clip-path:url(#SVGID_00000136387822590513662530000010071105614960276099_);fill:#002677;}
	.st9{clip-path:url(#SVGID_00000043458639347474127630000003745003051489381796_);fill:#002677;}
	.st10{clip-path:url(#SVGID_00000097487115433043080860000017439521890665730216_);fill:#002677;}
	.st11{clip-path:url(#SVGID_00000065766054278601010780000011953012530512747699_);fill:#002677;}
	.st12{clip-path:url(#SVGID_00000090973362634481128930000009941823327173018271_);fill:#002677;}
	.st13{clip-path:url(#SVGID_00000050621107913050061180000016874867028510645632_);fill:#002677;}
	.st14{clip-path:url(#SVGID_00000052823607259112291240000001438874741740842898_);fill:#002677;}
	.st15{clip-path:url(#SVGID_00000150101806959636663000000004459207516835991733_);fill:#002677;}
	.st16{clip-path:url(#SVGID_00000070799582573242498720000007732262794885351054_);fill:#002677;}
	.st17{clip-path:url(#SVGID_00000137838527939532270280000010229951039968854922_);fill:#002677;}
	.st18{clip-path:url(#SVGID_00000115477874172394602670000000797339743724983478_);fill:#002677;}
	.st19{clip-path:url(#SVGID_00000028288155708542084630000012905273104816687794_);fill:#002677;}
	.st20{clip-path:url(#SVGID_00000040538038566173045360000010748518477224934027_);fill:#002677;}
	.st21{clip-path:url(#SVGID_00000088132391678616934050000017174789961136056730_);fill:#002677;}
	.st22{clip-path:url(#SVGID_00000129909537551216031220000003955866603292550589_);fill:#002677;}
	.st23{clip-path:url(#SVGID_00000026876811602902036660000013040470505808033203_);fill:#002677;}
	.st24{clip-path:url(#SVGID_00000018215985431910812860000012611614772435229571_);fill:#002677;}
	.st25{clip-path:url(#SVGID_00000130634489708791512160000005582306409424172179_);fill:#002677;}
	.st26{clip-path:url(#SVGID_00000052094277039711579640000006526581902686911416_);fill:#002677;}
	.st27{clip-path:url(#SVGID_00000137103216711749853460000014846254227932507321_);fill:#002677;}
	.st28{clip-path:url(#SVGID_00000074422596854910133660000012372490789598370992_);fill:#002677;}
	.st29{clip-path:url(#SVGID_00000020395452710355692780000008711125115211589516_);fill:#002677;}
	.st30{clip-path:url(#SVGID_00000117640209290818807920000001172246014105478814_);fill:#002677;}
	.st31{clip-path:url(#SVGID_00000183931361053517617960000007793342528504061631_);fill:#002677;}
	.st32{clip-path:url(#SVGID_00000078006095093924873890000014445012114156164261_);fill:#002677;}
	.st33{clip-path:url(#SVGID_00000096738010489619562790000004419879131331852216_);fill:#002677;}
	.st34{clip-path:url(#SVGID_00000094582252084585338130000003722359720243372685_);fill:#002677;}
	.st35{fill:none;stroke:#002677;stroke-width:6.752;stroke-miterlimit:3;}
	.st36{fill:none;stroke:#002677;stroke-width:6.752;}
</style>
<rect x="199" y="61" class="st0" width="1202" height="778"/>
<rect x="189.23" y="51.5" class="st1" width="1220.81" height="797.25"/>
<path class="st2" d="M1257.29,421.27c0,45.32-6.47,91.5-42.73,91.5c-41,0-41.86-55.24-41.86-85.02c0-42.3,1.3-105.31,43.16-105.31
	C1249.09,322.43,1257.29,362.57,1257.29,421.27 M1344.91,414.36c0-101.42-55.24-150.63-129.05-150.63
	c-96.68,0-131.2,84.16-131.2,158.39c0,85.02,42.3,151.49,126.89,151.49C1319.01,573.62,1344.91,473.49,1344.91,414.36
	 M980.04,421.27c0,45.32-6.47,91.5-42.73,91.5c-41,0-41.86-55.24-41.86-85.02c0-42.3,1.29-105.31,43.16-105.31
	C971.84,322.43,980.04,362.57,980.04,421.27 M1067.65,414.36c0-101.42-55.24-150.63-129.04-150.63
	c-96.68,0-131.2,84.16-131.2,158.39c0,85.02,42.3,151.49,126.89,151.49C1041.76,573.62,1067.65,473.49,1067.65,414.36
	 M773.96,565.85v-296.5h-76.82c-7.77,32.8-41,40.14-64.31,40.14h-11.22v66.9c37.12,0,49.2-2.16,63.44-7.34v196.8H773.96z"/>
<path class="st2" d="M1329.58,121.57h-27.14l-20.39,32.27l-20.53-32.27h-27.28l35.79,50.91v44.43h23.5v-45.1L1329.58,121.57z
	 M1224.39,140.34v-18.77h-73.59v18.77h24.85v76.57h24.04v-76.57H1224.39z M1137.14,121.57h-23.77v95.34h23.77V121.57z
	 M1098.85,216.91v-20.12h-37.27v-75.22h-23.77v95.34H1098.85z M988.78,184.5h-24.17l11.75-40.24L988.78,184.5z M1024.3,216.91
	l-35.11-95.34h-24.85l-35.38,95.34h25.39l4.73-15.26h35.11l4.73,15.26H1024.3z M920.2,121.57h-23.9v60.77
	c0,10.94-4.19,17.01-16.34,17.01c-10.67,0-17.15-3.1-17.15-15.8v-61.98h-24.04v59.28c0,26.33,17.96,38.22,40.38,38.22
	c25.79,0,41.05-15.93,41.05-39.84L920.2,121.57L920.2,121.57z M748.15,168.83c0-15.39,6.35-29.98,23.9-29.98
	c14.45,0,24.31,11.75,24.31,30.11c0,8.78-3.51,30.52-23.9,30.52C754.64,199.49,748.15,183.15,748.15,168.83 M829.04,208.67
	c-6.89-1.08-12.56-2.57-18.5-8.51c5.27-7.29,9.45-19.31,9.45-31.6c0-31.46-22.15-49.83-48.07-49.83c-29.57,0-47.53,23.23-47.53,50.1
	c0,28.49,17.28,50.77,47.53,50.77c9.72,0,15.39-2.43,24.04-6.62c10.26,8.24,18.5,11.88,26.2,12.56L829.04,208.67z M637.3,216.91
	h74.67v-18.77h-50.91v-22.69h43.62v-18.1h-43.62v-17.28h46.72v-18.5H637.3V216.91z"/>
<path class="st2" d="M446.83,768.79h-11.66l11.66-15.67V768.79z M467.85,778.89v-10.1h-6.54v-30.38h-15.15l-23.17,30.3v10.17h23.77
	v10.62h14.56v-10.62h6.53V778.89z M417.42,777.63H397c8.62-4.9,12.7-7.5,15.97-11.07c4.68-5.05,5.12-9.51,5.12-12.4
	c0-8.69-4.98-16.41-20.28-16.41c-12.92,0-22.35,4.68-22.35,19.01v1.19l15.08,1.78c-0.45-1.49-0.52-2.08-0.52-3.71
	c0-6.31,3.57-7.58,6.54-7.58c4.46,0,6.09,2.75,6.09,5.94c0,4.08-2.75,6.76-5.57,9.36c-3.12,2.82-6.46,5.35-9.88,7.8
	c-3.94,2.9-8.02,5.64-12.11,8.32v9.66h42.33L417.42,777.63L417.42,777.63z M355.27,764.63c0,7.8-1.11,15.74-7.35,15.74
	c-7.06,0-7.2-9.51-7.2-14.63c0-7.28,0.22-18.12,7.43-18.12C353.86,747.63,355.27,754.53,355.27,764.63 M370.35,763.45
	c0-17.45-9.51-25.92-22.21-25.92c-16.64,0-22.58,14.48-22.58,27.26c0,14.63,7.28,26.07,21.84,26.07
	C365.89,790.85,370.35,773.62,370.35,763.45 M319.38,777.63h-20.42c8.61-4.9,12.7-7.5,15.97-11.07c4.68-5.05,5.12-9.51,5.12-12.4
	c0-8.69-4.98-16.41-20.27-16.41c-12.92,0-22.36,4.68-22.36,19.01v1.19l15.08,1.78c-0.45-1.49-0.52-2.08-0.52-3.71
	c0-6.31,3.57-7.58,6.54-7.58c4.46,0,6.09,2.75,6.09,5.94c0,4.08-2.75,6.76-5.57,9.36c-3.12,2.82-6.46,5.35-9.88,7.8
	c-3.94,2.9-8.02,5.64-12.11,8.32v9.66h42.33V777.63z"/>
<path class="st2" d="M440.13,694.38c1.11-0.3,1.93-0.37,4.01-0.37c4.08,0,8.32,1.04,8.32,5.35c0,4.09-2.45,6.46-7.87,6.46
	c-5.94,0-7.95-3.86-8.32-8.54l-14.19,2.67c2.15,13,11.21,16.34,22.8,16.34c14.93,0,23.1-5.72,23.1-16.12c0-7.8-5.35-10.1-9.8-11.36
	c5.5-1.93,8.17-5.79,8.17-11.14c0-8.84-7.8-14.33-20.42-14.33c-12.7,0-20.8,4.83-22.13,17.01l14.04,0.82
	c0.22-2.01,0.82-7.58,7.13-7.58c5.42,0,6.91,2.97,6.91,5.35c0,5.2-5.87,5.57-8.32,5.57c-1.49,0-2.01-0.07-3.42-0.22v10.09H440.13z
	 M417.14,703.36h-20.42c8.62-4.9,12.7-7.5,15.97-11.07c4.68-5.05,5.12-9.51,5.12-12.4c0-8.69-4.98-16.41-20.28-16.41
	c-12.92,0-22.35,4.68-22.35,19.01v1.19l15.08,1.78c-0.45-1.48-0.52-2.08-0.52-3.71c0-6.31,3.57-7.58,6.54-7.58
	c4.46,0,6.09,2.75,6.09,5.94c0,4.08-2.75,6.76-5.57,9.36c-3.12,2.82-6.46,5.35-9.88,7.8c-3.94,2.9-8.02,5.64-12.11,8.32v9.65h42.33
	V703.36z M355,690.37c0,7.8-1.11,15.74-7.35,15.74c-7.06,0-7.2-9.51-7.2-14.63c0-7.28,0.22-18.12,7.43-18.12
	C353.58,673.36,355,680.26,355,690.37 M370.07,689.18c0-17.45-9.51-25.92-22.21-25.92c-16.64,0-22.58,14.48-22.58,27.26
	c0,14.63,7.28,26.07,21.84,26.07C365.62,716.58,370.07,699.35,370.07,689.18 M319.1,703.36h-20.42c8.61-4.9,12.7-7.5,15.97-11.07
	c4.68-5.05,5.12-9.51,5.12-12.4c0-8.69-4.98-16.41-20.27-16.41c-12.92,0-22.36,4.68-22.36,19.01v1.19l15.08,1.78
	c-0.45-1.48-0.52-2.08-0.52-3.71c0-6.31,3.57-7.58,6.54-7.58c4.46,0,6.09,2.75,6.09,5.94c0,4.08-2.75,6.76-5.57,9.36
	c-3.12,2.82-6.46,5.35-9.88,7.8c-3.94,2.9-8.02,5.64-12.11,8.32v9.65h42.33L319.1,703.36L319.1,703.36z"/>
<path class="st2" d="M1302.45,789.51v-26.59c0-7.51-3.97-11.34-11.48-11.34c-5.18,0-8.65,2.06-10.42,4.18v-3.26h-11.06v37.01h10.92
	v-20.7c0-4.96,0.71-8.51,5.74-8.51c4.4,0,5.39,2.91,5.39,6.38v22.83L1302.45,789.51L1302.45,789.51z M1252.73,771.37
	c0,5.53-2.69,10.56-8.72,10.56c-6.38,0-9-4.89-9-11.06c0-7.73,4.32-10.85,8.44-10.85C1249.4,760.02,1252.73,763.5,1252.73,771.37
	 M1263.79,771.01c0-8.86-4.75-19.64-20.28-19.64c-13.82,0-19.5,10.07-19.5,19.42c0,14.6,10.21,19.85,19.85,19.85
	C1256.27,790.65,1263.79,782.99,1263.79,771.01 M1218.36,752.51h-10.85v37.01h10.85V752.51z M1218.36,739.46h-10.85v8.44h10.85
	V739.46z M1201.64,756.83c-4.47-3.4-10.14-5.53-16.45-5.53c-10.42,0-15.67,6.1-15.67,12.41c0,5.67,3.62,9.5,12.41,10.99l3.33,0.57
	c3.97,0.64,5.89,1.21,5.89,3.26c0,2.34-2.98,3.62-6.59,3.62c-3.97,0-8.08-2.27-10.78-5.1l-6.88,6.24c2.69,2.91,8.72,7.16,17.94,7.16
	c7.73,0,17.51-3.69,17.51-12.9c0-6.88-5.32-10.14-13.33-11.63l-2.62-0.5c-4.33-0.85-6.03-1.42-6.03-3.19c0-2.06,2.76-2.84,5.1-2.84
	c3.47,0,7.02,1.7,9.43,3.69L1201.64,756.83z M1163.35,789.51V752.5h-10.85v23.11c0,3.4-1.84,6.1-6.24,6.1s-5.25-2.98-5.25-5.46
	V752.5h-10.99v24.81c0,9.14,3.47,13.26,11.63,13.26c6.1,0,9.78-3.12,10.78-4.54v3.47h10.92V789.51z M1122.48,739.46h-10.85v50.05
	h10.85V739.46z M1099.25,776.54c-0.78,2.34-2.91,5.53-7.16,5.53c-6.03,0-8.22-6.45-8.22-11.13c0-4.47,2.06-11.13,7.87-11.13
	c4.25,0,6.24,3.12,7.23,5.18l8.08-4.61c-5.18-8.22-12.48-8.93-15.81-8.93c-8.37,0-18.57,5.03-18.57,19.85
	c0,13.89,9.71,19.42,18.36,19.42c5.67,0,12.27-2.62,16.45-9.92L1099.25,776.54z M1067.01,789.51v-26.59
	c0-7.51-3.97-11.34-11.48-11.34c-5.17,0-8.65,2.06-10.42,4.18v-3.26h-11.06v37.01h10.92v-20.7c0-4.96,0.71-8.51,5.74-8.51
	c4.4,0,5.39,2.91,5.39,6.38v22.83L1067.01,789.51L1067.01,789.51z M1025.45,739.46h-12.48v50.05h12.48V739.46z M959.59,766.47
	c0.5-2.98,2.62-7.3,7.8-7.3c4.47,0,7.23,3.19,7.37,7.3H959.59z M986.03,773.28v-0.5c0-10.28-4.68-21.41-18.57-21.41
	c-14.46,0-19,11.06-19,20.35c0,11.98,7.44,19.14,18.72,19.14c7.66,0,14.25-3.69,18.43-10.7l-8.22-4.25
	c-1.13,3.05-4.18,6.59-9.36,6.59c-5.03,0-8.44-3.83-8.44-8.79v-0.43L986.03,773.28L986.03,773.28z M938.1,776.54
	c-0.78,2.34-2.91,5.53-7.16,5.53c-6.03,0-8.22-6.45-8.22-11.13c0-4.47,2.06-11.13,7.87-11.13c4.25,0,6.24,3.12,7.23,5.18l8.08-4.61
	c-5.18-8.22-12.48-8.93-15.81-8.93c-8.36,0-18.57,5.03-18.57,19.85c0,13.89,9.71,19.42,18.36,19.42c5.67,0,12.26-2.62,16.45-9.92
	L938.1,776.54z M895.2,771.79v1.63c0,5.25-3.26,9.07-7.52,9.07c-3.12,0-4.18-2.48-4.18-3.76c0-1.63,0.92-3.4,4.68-4.61L895.2,771.79
	z M906.97,789.51c-0.92-1.35-1.06-2.55-1.06-5.74v-21.62c0-8.93-9.57-10.63-15.95-10.63c-8.08,0-15.6,3.33-15.6,11.49h10.92
	c0.28-1.63,1.13-4.33,5.74-4.33c3.97,0,4.18,3.19,4.18,4.47v2.06c-8.15,1.56-12.05,2.34-14.6,3.4c-4.61,1.91-7.8,6.03-7.8,10.63
	c0,5.32,3.69,11.27,12.12,11.27c5.67,0,8.44-2.41,11.34-4.32v3.33h10.71V789.51z M866.87,739.46h-10.85v50.05h10.85V739.46z
	 M824.6,771.51c0-8.58,3.76-12.12,7.8-12.12c6.59,0,7.37,8.51,7.37,10.99c0,5.74-2.06,11.98-7.66,11.98
	C827.08,782.35,824.6,777.68,824.6,771.51 M814.03,752.51v49.84h11.06V787.1c3.19,1.99,5.17,3.12,9.07,3.12
	c9.85,0,16.09-7.37,16.09-19.28c0-10.28-5.46-19.28-16.09-19.28c-6.52,0-9.57,3.26-10.35,4.47v-3.62L814.03,752.51L814.03,752.51z
	 M811,789.51l-14.39-23.82l12.76-13.19h-13.11l-11.98,12.69v-25.73h-10.7v50.05h10.63v-11.48l4.68-4.47l9.5,15.95L811,789.51
	L811,789.51z M748.61,752.51v37.01h10.85v-20.84c0-3.97,1.06-5.46,6.81-6.38l3.61-0.57v-9.64c-1.35,0.07-3.4,0.28-6.38,1.49
	c-2.41,0.99-3.4,1.98-4.33,2.77v-3.83L748.61,752.51L748.61,752.51z M731.96,771.37c0,5.53-2.69,10.56-8.72,10.56
	c-6.38,0-9-4.89-9-11.06c0-7.73,4.32-10.85,8.44-10.85C728.63,760.02,731.96,763.5,731.96,771.37 M743.02,771.01
	c0-8.86-4.75-19.64-20.28-19.64c-13.82,0-19.5,10.07-19.5,19.42c0,14.6,10.21,19.85,19.85,19.85
	C735.51,790.65,743.02,782.99,743.02,771.01 M703.46,739.46h-12.48l-7.3,34.45l-9.36-34.45h-11.13l-9.07,34.45l-7.37-34.45H634.2
	l12.69,50.05h12.9l9.07-32.04l9,32.04h12.9L703.46,739.46z"/>
<path class="st2" d="M1308.53,696.01v-9.65h-13.89v-14.93h-12.33v14.93h-13.89v9.65h13.89v15.15h12.33v-15.15H1308.53z
	 M1219.3,688.81c0-8.47,3.49-16.49,13.15-16.49c7.95,0,13.37,6.46,13.37,16.56c0,4.83-1.93,16.79-13.15,16.79
	C1222.86,705.66,1219.3,696.68,1219.3,688.81 M1263.79,710.72c-3.79-0.59-6.91-1.41-10.17-4.68c2.9-4.01,5.2-10.62,5.2-17.38
	c0-17.3-12.18-27.41-26.44-27.41c-16.27,0-26.14,12.77-26.14,27.55c0,15.67,9.51,27.92,26.14,27.92c5.35,0,8.47-1.34,13.22-3.64
	c5.65,4.53,10.17,6.54,14.41,6.91L1263.79,710.72z M1201.18,673.13v-10.32h-40.48v10.32h13.67v42.11h13.22v-42.11H1201.18z
	 M1122.59,705.74v-12.7h11.29c2.67,0,7.95,0.15,7.95,6.46c0,6.02-5.87,6.24-10.1,6.24H1122.59z M1122.59,683.53v-10.92h10.77
	c2.53,0,6.91,0.22,6.91,5.27c0,5.42-4.98,5.65-7.8,5.65L1122.59,683.53L1122.59,683.53z M1110.12,715.25h25.7
	c10.7,0,19.31-5.05,19.31-14.71c0-9.21-8.17-11.81-13.22-12.26c3.19-0.37,11.22-2.9,11.22-11.73c0-7.65-4.75-13.74-18.57-13.74
	h-24.44L1110.12,715.25L1110.12,715.25z M1097.63,673.13c-2.23-2.82-9.21-12.11-23.1-12.11c-18.57,0-25.85,15.52-25.85,28
	c0,13.29,7.35,27.4,23.62,27.4c2.97,0,9.06-0.22,15.45-6.02v4.83H1098v-29.11h-22.8v9.95h11.73c-0.45,7.5-6.68,9.8-11.44,9.8
	c-11.88,0-13.74-10.99-13.74-17.23c0-10.7,5.27-16.93,13.67-16.93c6.02,0,10.4,3.64,12.26,7.43L1097.63,673.13z M1042.78,715.25
	v-11.07h-20.5v-41.37h-13.07v52.43h33.57V715.25z M971.78,715.25V687.4c0-7.87-4.16-11.88-12.03-11.88c-5.42,0-9.06,2.15-10.92,4.38
	v-3.42h-11.59v38.77h11.44v-21.69c0-5.2,0.74-8.91,6.02-8.91c4.61,0,5.64,3.04,5.64,6.68v23.92L971.78,715.25L971.78,715.25z
	 M926.51,676.48h-11.36v38.77h11.36V676.48z M926.51,662.81h-11.36v8.84h11.36V662.81z M860.26,676.48v38.77h11.36v-21.84
	c0-4.16,1.11-5.72,7.13-6.68l3.79-0.6v-10.1c-1.41,0.07-3.57,0.3-6.68,1.56c-2.53,1.04-3.57,2.08-4.53,2.9v-4.01L860.26,676.48
	L860.26,676.48z M824.65,691.11c0.52-3.12,2.75-7.65,8.17-7.65c4.68,0,7.57,3.34,7.72,7.65H824.65z M852.36,698.24v-0.52
	c0-10.77-4.9-22.43-19.46-22.43c-15.15,0-19.9,11.59-19.9,21.32c0,12.55,7.8,20.05,19.61,20.05c8.02,0,14.93-3.86,19.31-11.22
	l-8.61-4.46c-1.19,3.19-4.38,6.91-9.8,6.91c-5.27,0-8.84-4.01-8.84-9.21v-0.45h27.69V698.24z M778.51,696.08
	c0-5.49,1.86-12.11,7.95-12.11c6.24,0,7.13,7.35,7.13,12.18c0,1.86-0.3,11.66-7.72,11.66C779.25,707.82,778.51,699.5,778.51,696.08
	 M804.43,715.25v-52.43h-11.07v16.56c-1.48-1.19-4.83-3.94-10.25-3.94c-10.55,0-16.19,9.21-16.19,20.72
	c0,13.07,7.65,20.13,16.79,20.13c2.08,0,6.09-0.37,10.32-4.68v3.64H804.43z M747.32,696.68v1.71c0,5.5-3.42,9.51-7.87,9.51
	c-3.27,0-4.38-2.6-4.38-3.94c0-1.71,0.97-3.57,4.9-4.83L747.32,696.68z M759.65,715.25c-0.97-1.41-1.11-2.67-1.11-6.02v-22.65
	c0-9.36-10.03-11.14-16.71-11.14c-8.47,0-16.34,3.49-16.34,12.03h11.44c0.3-1.71,1.19-4.53,6.02-4.53c4.16,0,4.38,3.34,4.38,4.68
	v2.15c-8.54,1.63-12.63,2.45-15.3,3.57c-4.83,2.01-8.17,6.31-8.17,11.14c0,5.57,3.86,11.81,12.7,11.81c5.94,0,8.84-2.52,11.88-4.53
	v3.49L759.65,715.25L759.65,715.25z M690.24,691.11c0.52-3.12,2.75-7.65,8.17-7.65c4.68,0,7.58,3.34,7.72,7.65H690.24z
	 M717.94,698.24v-0.52c0-10.77-4.9-22.43-19.46-22.43c-15.15,0-19.9,11.59-19.9,21.32c0,12.55,7.8,20.05,19.61,20.05
	c8.02,0,14.93-3.86,19.31-11.22l-8.61-4.46c-1.19,3.19-4.38,6.91-9.8,6.91c-5.27,0-8.84-4.01-8.84-9.21v-0.45h27.69V698.24z
	 M672.82,715.25v-11.07h-20.5v-41.37h-13.07v52.43h33.57V715.25z"/>
<line class="st1" x1="560.09" y1="792.59" x2="560.09" y2="114.69"/>
<rect x="263.6" y="120.8" class="st2" width="225.45" height="223.47"/>
<path class="st3" d="M444.15,219.14H308.5V177.5h135.64L444.15,219.14L444.15,219.14z M444.15,245.31H308.5v41.64h135.64
	L444.15,245.31L444.15,245.31z"/>
<g>
	<g>
		<defs>
			<rect id="SVGID_1_" x="258.54" y="115.74" width="236.37" height="459.23"/>
		</defs>
		<clipPath id="SVGID_00000099633869176514409470000001292136677550143668_">
			<use xlink:href="#SVGID_1_"  style="overflow:visible;"/>
		</clipPath>
		<path style="clip-path:url(#SVGID_00000099633869176514409470000001292136677550143668_);fill:#002677;" d="M287.43,398.88
			c2.1,0,2.36,0,2.36-1.7v-3.99c0-4.51-0.26-4.78-3.08-5.23l-1.24-0.2c-0.46-0.33-0.39-1.44,0.13-1.64c2.55,0.13,4.58,0.2,6.67,0.2
			c2.1,0,4.12-0.06,6.67-0.2c0.52,0.2,0.59,1.31,0.13,1.64l-1.24,0.2c-2.81,0.46-3.08,0.72-3.08,5.23v14.66
			c0,4.51,0.26,4.84,3.08,5.23l1.5,0.2c0.46,0.33,0.39,1.44-0.13,1.64c-2.75-0.13-4.91-0.2-6.94-0.2c-2.09,0-4.12,0.06-6.67,0.2
			c-0.52-0.2-0.59-1.31-0.13-1.64l1.24-0.2c2.82-0.46,3.08-0.72,3.08-5.23v-5.17c0-1.64-0.13-1.7-2.36-1.7H275.9
			c-2.22,0-2.35,0.06-2.35,1.7v5.17c0,4.51,0.26,4.91,3.07,5.23l1.77,0.2c0.46,0.33,0.39,1.44-0.13,1.64
			c-3.01-0.13-5.17-0.2-7.2-0.2c-2.09,0-4.12,0.06-6.15,0.2c-0.52-0.2-0.59-1.31-0.13-1.64l0.72-0.2c2.75-0.72,3.07-0.72,3.07-5.23
			v-14.66c0-4.51-0.26-4.84-3.07-5.23l-1.51-0.2c-0.46-0.33-0.39-1.44,0.13-1.64c2.81,0.13,4.84,0.2,6.94,0.2s4.12-0.06,6.41-0.2
			c0.52,0.2,0.59,1.31,0.13,1.64l-0.98,0.2c-2.75,0.52-3.07,0.72-3.07,5.23v3.99c0,1.7,0.26,1.7,2.35,1.7H287.43z M318.36,393.19
			c0-4.51-0.33-4.64-3.08-5.23l-0.92-0.2c-0.46-0.33-0.39-1.44,0.13-1.64c2.23,0.13,4.25,0.2,6.35,0.2c2.09,0,4.12-0.06,6.67-0.2
			c0.52,0.2,0.59,1.31,0.13,1.64l-1.24,0.2c-2.81,0.46-3.07,0.72-3.07,5.23v9.23c0,6.54,2.16,10.99,8.51,10.99
			c5.89,0,8.44-4.45,8.44-10.93v-6.09c0-6.54-0.39-8.05-3.21-8.44l-1.37-0.2c-0.46-0.39-0.39-1.31,0.13-1.64
			c2.1,0.13,3.6,0.2,5.5,0.2s3.34-0.06,5.43-0.2c0.52,0.33,0.52,1.31,0.07,1.64l-1.96,0.2c-1.7,0.2-2.23,1.96-2.23,8.44v6.48
			c0,8.38-3.86,12.76-12.17,12.76c-4.19,0-7.33-0.85-9.29-2.75c-1.96-1.96-2.81-4.97-2.81-9.23v-10.46H318.36z M377.69,403.2
			c0.46,0.85,2.09,3.79,2.35,3.99c0.26-0.13,1.44-2.23,2.68-4.58l3.27-6.28c3.14-6.02,3.47-7.13,4.51-10.21
			c1.44,0.13,2.75,0.2,3.8,0.2c1.57,0,3.47-0.06,5.36-0.2c0.59,0.2,0.65,1.31,0.2,1.64l-1.44,0.2c-3.01,0.39-3.14,1.64-3.14,5.5
			c0,6.93,0,12.5,0.33,16.42c0.13,1.44,0.13,3.01,2.16,3.21l1.9,0.2c0.46,0.26,0.46,1.37-0.07,1.64c-2.35-0.13-4.91-0.2-6.54-0.2
			c-1.9,0-3.92,0.06-5.76,0.2c-0.46-0.33-0.52-1.37-0.07-1.64l1.44-0.2c2.09-0.26,2.09-0.79,2.09-3.4v-15.12c0-0.78,0-1.77-0.19-1.9
			c-0.2,0-1.9,3.27-2.82,4.97l-3.99,7.52c-0.52,0.98-3.92,7.79-4.64,9.88c-0.33,0.26-0.85,0.26-1.24,0
			c-0.72-2.36-2.75-6.54-3.86-8.7l-4.25-8.24c-0.72-1.44-2.09-4.91-2.62-5.11c-0.26,0.33-0.33,4.71-0.39,6.54
			c-0.07,2.62-0.13,5.37-0.13,8.57c0,3.34,0.07,4.78,1.9,4.97l2.16,0.2c0.46,0.26,0.39,1.37-0.07,1.64c-1.7-0.13-3.6-0.2-5.37-0.2
			c-1.44,0-3.4,0.06-5.43,0.2c-0.46-0.26-0.52-1.31,0-1.64l1.37-0.2c2.16-0.33,2.36-0.98,2.68-3.27c0.52-3.53,0.92-14.07,0.92-18.52
			c0-2.09-0.72-3.08-2.94-3.34l-1.57-0.2c-0.39-0.33-0.46-1.38,0.13-1.64c1.77,0.13,3.27,0.2,5.04,0.2c1.31,0,2.68,0,4.78-0.2
			c0,2.88,1.18,4.97,3.4,9.29L377.69,403.2z M423.47,404.58c-1.51,0-1.7,0.06-2.22,1.57l-1.51,4.19c-0.72,2.09-0.52,2.36,0.72,2.62
			l1.77,0.33c0.52,0.33,0.46,1.5-0.2,1.64c-1.64-0.13-3.34-0.2-5.17-0.2s-3.4,0.13-4.58,0.2c-0.59-0.26-0.59-1.31-0.13-1.64
			l1.51-0.33c2.03-0.46,2.75-1.18,4.06-4.32l6.28-15.05c1.11-2.68,1.57-4.25,1.7-5.5c1.18-0.46,2.42-1.7,2.75-2.49
			c0.52-0.2,0.91-0.07,1.05,0.33c0.26,0.65,1.31,4.06,2.81,8.05l5.89,15.64c0.78,2.16,1.37,3.01,3.73,3.47l1.05,0.2
			c0.59,0.33,0.46,1.5-0.2,1.64c-1.7-0.13-3.21-0.2-5.43-0.2c-2.36,0-4.26,0.06-5.89,0.2c-0.65-0.2-0.72-1.37-0.13-1.64l1.31-0.2
			c1.7-0.26,1.64-0.66,0.85-2.68l-1.57-4.25c-0.52-1.51-0.72-1.57-2.23-1.57h-6.22V404.58z M428.64,402.48c1.7,0,1.9-0.13,1.18-2.03
			l-2.03-5.56c-0.52-1.5-0.79-2.03-0.98-2.36h-0.13c-0.2,0.26-0.46,0.85-1.05,2.23l-2.36,5.82c-0.72,1.77-0.59,1.9,0.85,1.9
			L428.64,402.48L428.64,402.48z M482.21,396.4c0-6.54-0.39-8.18-2.81-8.44l-2.09-0.2c-0.46-0.39-0.39-1.31,0.13-1.64
			c2.42,0.13,3.93,0.2,5.83,0.2s3.34-0.06,5.43-0.2c0.52,0.33,0.52,1.31,0.07,1.64l-1.96,0.2c-1.7,0.2-2.23,1.96-2.23,8.44v10.99
			c0,1.31,0,6.61,0.2,7.59c-0.2,0.39-0.79,0.72-1.38,0.59c-0.72-0.92-2.03-2.29-6.08-6.67l-9.95-10.6
			c-2.48-2.62-4.19-4.32-5.04-5.04c-0.26,0-0.26,0.72-0.26,2.75v8.64c0,6.54,0.39,8.24,2.81,8.44l2.09,0.2
			c0.52,0.39,0.39,1.31-0.13,1.64c-2.42-0.13-3.93-0.2-5.83-0.2s-3.14,0.06-5.43,0.2c-0.52-0.26-0.52-1.31-0.06-1.64l1.96-0.2
			c1.7-0.2,2.22-1.96,2.22-8.44v-11.71c0-2.16-0.07-3.08-1.37-4.06c-0.52-0.39-1.77-0.79-2.42-0.92l-0.98-0.2
			c-0.46-0.39-0.46-1.38,0.13-1.64c2.49,0.2,4.25,0.2,5.63,0.2c0.92,0,1.83-0.06,2.62-0.2c1.31,2.49,3.73,5.3,6.41,8.05l6.15,6.35
			c1.44,1.44,5.24,5.56,5.96,6.08c0.39-0.13,0.39-1.05,0.39-2.62L482.21,396.4L482.21,396.4z M268.58,450.96
			c0-4.25-0.07-5.37-1.57-5.56l-1.83-0.26c-0.52-0.07-0.65-1.44,0-1.64c3.6-0.26,7.26-0.39,10.86-0.39c6.08,0,12.69,0.98,12.69,7.85
			c0,4.19-3.27,6.09-5.82,7c-0.26,0.26-0.2,0.65,0,0.98c3.27,5.5,6.15,8.7,8.31,10.47c1.18,0.98,2.42,1.31,3.47,1.38
			c0.26,0.26,0.26,0.85,0,1.05c-0.59,0.2-1.5,0.33-2.75,0.33c-3.93,0-6.28-1.24-9.16-4.91c-1.63-2.1-3.4-4.97-4.78-7.07
			c-0.52-0.79-1.57-1.05-2.62-1.05c-1.7,0-1.83,0.13-1.83,1.05v4.65c0,4.51,0.26,4.84,3.07,5.23l1.51,0.2
			c0.46,0.33,0.39,1.44-0.13,1.64c-2.75-0.13-4.91-0.2-6.94-0.2c-2.09,0-4.12,0.06-6.41,0.2c-0.65-0.2-0.72-1.37-0.13-1.64l0.98-0.2
			c2.81-0.59,3.07-0.72,3.07-5.23L268.58,450.96L268.58,450.96z M273.56,455.73c0,1.64,0.07,1.64,3.27,1.64
			c4.25,0,6.48-1.7,6.48-6.22c0-3.27-2.29-6.15-6.87-6.15c-2.42,0-2.88,0.13-2.88,1.83V455.73z M310.51,450.17
			c0-4.51-0.26-4.78-3.08-5.23l-1.24-0.2c-0.46-0.33-0.39-1.44,0.13-1.64c2.55,0.13,4.58,0.2,6.68,0.2c2.09,0,4.12-0.06,6.67-0.2
			c0.52,0.2,0.59,1.31,0.13,1.64l-1.24,0.2c-2.81,0.46-3.08,0.72-3.08,5.23v14.66c0,4.51,0.26,4.78,3.08,5.23l1.24,0.2
			c0.46,0.33,0.39,1.44-0.13,1.64c-2.49-0.13-4.65-0.2-6.67-0.2c-2.1,0-4.12,0.06-6.68,0.2c-0.52-0.2-0.59-1.31-0.13-1.64l1.24-0.2
			c2.81-0.46,3.08-0.72,3.08-5.23V450.17z M356.3,465.81c0-3.01-0.07-3.4-3.01-3.93l-2.09-0.39c-0.46-0.33-0.46-1.24,0.07-1.64
			c2.62,0.13,5.5,0.2,7.39,0.2c1.83,0,3.99-0.07,5.56-0.2c0.52,0.33,0.59,1.24,0.2,1.64l-1.18,0.26c-1.7,0.39-1.96,0.78-1.96,3.6
			v1.83c0,1.57,0.13,2.55,1.05,3.01c0.26,0.2,0.26,0.79-0.07,0.92c-0.72,0-2.09,0.39-3.92,0.72c-1.77,0.33-4.06,0.78-6.54,0.78
			c-5.82,0-10.6-1.37-14.07-4.84c-2.75-2.75-4.06-6.54-4.06-9.95c0-3.66,1.31-7.39,4.12-10.27c3.01-3.08,7.46-5.17,14.46-5.17
			c3.6,0,6.81,0.92,8.77,1.31c0.06,1.31,0.2,3.92,0.59,7.39c-0.33,0.59-1.31,0.65-1.7,0.07c-1.7-5.17-4.52-6.87-9.29-6.87
			c-6.87,0-11.12,5.3-11.12,12.95c0,8.05,4.97,13.48,12.89,13.48c3.47,0,3.92-0.65,3.92-3.27L356.3,465.81L356.3,465.81z
			 M401.3,455.87c2.09,0,2.36,0,2.36-1.7v-3.99c0-4.51-0.26-4.78-3.08-5.23l-1.24-0.2c-0.46-0.33-0.39-1.44,0.13-1.64
			c2.55,0.13,4.58,0.2,6.67,0.2c2.1,0,4.12-0.06,6.67-0.2c0.52,0.2,0.59,1.31,0.13,1.64l-1.25,0.2c-2.81,0.46-3.07,0.72-3.07,5.23
			v14.66c0,4.51,0.26,4.84,3.07,5.23l1.51,0.2c0.46,0.33,0.39,1.44-0.13,1.64c-2.75-0.13-4.91-0.2-6.94-0.2
			c-2.09,0-4.12,0.06-6.67,0.2c-0.52-0.2-0.59-1.31-0.13-1.64l1.24-0.2c2.81-0.46,3.08-0.72,3.08-5.23v-5.17
			c0-1.64-0.13-1.7-2.36-1.7h-11.52c-2.22,0-2.36,0.06-2.36,1.7v5.17c0,4.51,0.26,4.91,3.08,5.23l1.77,0.2
			c0.46,0.33,0.39,1.44-0.13,1.64c-3.01-0.13-5.17-0.2-7.2-0.2c-2.1,0-4.12,0.06-6.15,0.2c-0.52-0.2-0.59-1.31-0.13-1.64l0.72-0.2
			c2.75-0.72,3.08-0.72,3.08-5.23v-14.66c0-4.51-0.26-4.84-3.08-5.23l-1.51-0.2c-0.46-0.33-0.39-1.44,0.13-1.64
			c2.81,0.13,4.84,0.2,6.94,0.2c2.09,0,4.12-0.06,6.41-0.2c0.52,0.2,0.59,1.31,0.13,1.64l-0.98,0.2c-2.75,0.52-3.08,0.72-3.08,5.23
			v3.99c0,1.7,0.26,1.7,2.36,1.7H401.3z M437.73,446.9c0-1.7-0.07-1.7-1.37-1.7h-2.03c-3.99,0-5.69,0.39-7.26,4.91
			c-0.65,0.39-1.38,0.2-1.64-0.33c0.72-2.81,1.44-6.08,1.77-7.72c0.26-0.26,0.92-0.26,1.18,0c0.07,1.31,0.98,1.24,3.6,1.24h18.19
			c2.42,0,2.88-0.06,3.4-1.24c0.46-0.26,0.98-0.13,1.18,0.2c-0.52,1.7-0.79,5.17-0.65,7.66c-0.26,0.52-1.37,0.59-1.64,0.06
			c-0.46-4.25-2.16-4.78-6.09-4.78h-2.22c-1.24,0-1.44,0-1.44,1.7v17.93c0,4.51,0.26,4.91,3.07,5.23l1.77,0.2
			c0.46,0.33,0.39,1.44-0.13,1.64c-2.68-0.13-5.17-0.2-7.2-0.2c-2.09,0-4.45,0.06-7.2,0.2c-0.52-0.2-0.59-1.31-0.13-1.64l1.77-0.2
			c2.81-0.33,3.07-0.72,3.07-5.23L437.73,446.9L437.73,446.9z M474.09,458.35c-3.14-1.64-5.82-4.19-5.82-7.85
			c0-4.78,3.67-8.11,10.27-8.11c2.29,0,3.86,0.59,6.09,0.98c0.52,1.11,0.98,3.6,0.92,6.41c-0.2,0.52-1.38,0.59-1.7,0.13
			c-0.52-2.29-2.22-5.63-6.09-5.63c-3.86,0-5.3,2.22-5.3,4.45c0,2.35,1.77,3.79,4.38,5.17l4.06,2.09c2.36,1.18,5.3,3.92,5.3,8.31
			c0,5.1-4.19,8.31-10.66,8.31c-3.99,0-6.61-1.37-7.53-2.03c-0.59-0.92-1.37-3.27-1.37-6.74c0.26-0.66,1.24-0.72,1.7-0.13
			c0.52,2.36,3.4,7,7.79,7c3.34,0,5.5-1.7,5.5-4.71c0-2.09-0.85-4.25-4.58-6.15L474.09,458.35z M283.17,500.02
			c0,0.89,0.13,2.96,0.38,4.64c-0.17,0.34-0.8,0.42-1.1,0.08c-0.63-2.32-2.07-4.3-5.87-4.3c-3.63,0-7.22,2.45-7.22,8.19
			c0,5.66,3.63,8.87,7.6,8.87s5.62-3.17,6.08-4.26c0.21-0.38,0.89-0.38,1.1,0.04c-0.21,1.86-0.89,3.8-1.39,4.56
			c-1.23,0.21-2.79,0.89-5.7,0.89c-2.66,0-5.28-0.46-7.43-1.94c-2.28-1.56-4.01-4.14-4.01-7.52c0-3.42,1.44-5.95,3.55-7.6
			c2.07-1.6,4.98-2.45,8.23-2.45C280.13,499.22,282.83,500.02,283.17,500.02 M300.68,511.59c-0.97,0-1.1,0.04-1.44,1.01l-0.97,2.7
			c-0.47,1.35-0.34,1.52,0.46,1.69l1.14,0.21c0.34,0.21,0.3,0.97-0.13,1.05c-1.05-0.08-2.15-0.13-3.34-0.13s-2.2,0.08-2.95,0.13
			c-0.38-0.17-0.38-0.84-0.09-1.05l0.97-0.21c1.31-0.3,1.77-0.76,2.62-2.79l4.05-9.71c0.72-1.73,1.01-2.75,1.1-3.55
			c0.76-0.29,1.56-1.1,1.77-1.6c0.34-0.13,0.59-0.04,0.68,0.21c0.17,0.42,0.84,2.62,1.82,5.19l3.8,10.09
			c0.51,1.39,0.89,1.94,2.41,2.24l0.67,0.13c0.38,0.21,0.3,0.97-0.12,1.05c-1.1-0.08-2.07-0.13-3.51-0.13
			c-1.52,0-2.74,0.04-3.8,0.13c-0.42-0.13-0.46-0.89-0.08-1.05l0.84-0.13c1.1-0.17,1.06-0.42,0.55-1.73l-1.01-2.74
			c-0.34-0.97-0.47-1.01-1.44-1.01L300.68,511.59L300.68,511.59z M304.02,510.24c1.1,0,1.22-0.08,0.76-1.31l-1.31-3.59
			c-0.34-0.97-0.51-1.31-0.63-1.52h-0.08c-0.13,0.17-0.3,0.55-0.67,1.43l-1.52,3.76c-0.46,1.14-0.38,1.22,0.55,1.22L304.02,510.24
			L304.02,510.24z M334.86,510.7c0.29,0.55,1.35,2.45,1.52,2.57c0.17-0.09,0.93-1.44,1.73-2.96l2.11-4.05
			c2.03-3.88,2.24-4.6,2.91-6.59c0.93,0.09,1.77,0.12,2.45,0.12c1.01,0,2.24-0.04,3.46-0.12c0.38,0.12,0.42,0.84,0.13,1.05
			l-0.93,0.13c-1.94,0.25-2.03,1.05-2.03,3.55c0,4.47,0,8.06,0.21,10.6c0.08,0.93,0.08,1.94,1.39,2.07l1.22,0.13
			c0.3,0.17,0.3,0.89-0.04,1.05c-1.52-0.08-3.17-0.13-4.22-0.13c-1.23,0-2.53,0.04-3.71,0.13c-0.3-0.21-0.34-0.89-0.04-1.05
			l0.93-0.13c1.35-0.17,1.35-0.51,1.35-2.2v-9.75c0-0.51,0-1.14-0.13-1.23c-0.13,0-1.22,2.11-1.82,3.21l-2.57,4.86
			c-0.34,0.63-2.53,5.02-3,6.37c-0.21,0.17-0.55,0.17-0.8,0c-0.46-1.52-1.77-4.22-2.49-5.61l-2.74-5.32
			c-0.46-0.93-1.35-3.16-1.69-3.29c-0.17,0.21-0.21,3.04-0.25,4.22c-0.04,1.69-0.08,3.46-0.08,5.53c0,2.15,0.04,3.08,1.22,3.21
			l1.39,0.13c0.3,0.17,0.25,0.89-0.04,1.05c-1.1-0.08-2.32-0.13-3.46-0.13c-0.93,0-2.19,0.04-3.5,0.13c-0.3-0.17-0.34-0.84,0-1.05
			l0.89-0.13c1.39-0.21,1.52-0.63,1.73-2.11c0.34-2.28,0.59-9.08,0.59-11.95c0-1.35-0.46-1.98-1.9-2.15l-1.01-0.13
			c-0.25-0.21-0.29-0.89,0.08-1.05c1.14,0.09,2.11,0.12,3.25,0.12c0.84,0,1.73,0,3.08-0.12c0,1.86,0.76,3.21,2.2,5.99L334.86,510.7z
			 M363.98,504.75c0-2.74-0.04-3.38-1.01-3.54L361.7,501c-0.38-0.13-0.34-0.93,0.04-1.06c2.36-0.17,4.52-0.25,6.76-0.25
			c2.36,0,3.88,0.3,5.07,0.72c1.39,0.51,3.42,1.94,3.42,4.94c0,2.91-1.94,4.26-3.5,4.81c-1.43,0.51-3.04,0.72-3.84,0.63
			c-0.21-0.21-0.21-0.59-0.04-0.76c2.62-0.55,3.93-2.11,3.93-4.81c0-2.79-1.73-4.31-4.6-4.31c-1.73,0-1.73,0.25-1.73,1.43v11.36
			c0,2.91,0.17,3.12,1.98,3.38l0.97,0.13c0.3,0.21,0.25,0.93-0.08,1.05c-1.77-0.08-3.17-0.13-4.47-0.13c-1.35,0-2.66,0.04-4.14,0.13
			c-0.34-0.13-0.38-0.84-0.08-1.05l0.63-0.13c1.82-0.38,1.98-0.46,1.98-3.38v-8.95H363.98z M392.63,511.59
			c-0.97,0-1.1,0.04-1.43,1.01l-0.97,2.7c-0.46,1.35-0.34,1.52,0.46,1.69l1.14,0.21c0.34,0.21,0.29,0.97-0.13,1.05
			c-1.06-0.08-2.15-0.13-3.34-0.13s-2.2,0.08-2.95,0.13c-0.38-0.17-0.38-0.84-0.09-1.05l0.97-0.21c1.31-0.3,1.77-0.76,2.62-2.79
			l4.05-9.71c0.72-1.73,1.01-2.75,1.1-3.55c0.76-0.29,1.56-1.1,1.77-1.6c0.34-0.13,0.59-0.04,0.68,0.21
			c0.17,0.42,0.84,2.62,1.82,5.19l3.8,10.09c0.51,1.39,0.89,1.94,2.41,2.24l0.68,0.13c0.38,0.21,0.3,0.97-0.13,1.05
			c-1.1-0.08-2.07-0.13-3.5-0.13c-1.52,0-2.75,0.04-3.8,0.13c-0.42-0.13-0.46-0.89-0.08-1.05l0.84-0.13
			c1.1-0.17,1.05-0.42,0.55-1.73l-1.01-2.74c-0.34-0.97-0.46-1.01-1.43-1.01L392.63,511.59L392.63,511.59z M395.96,510.24
			c1.1,0,1.23-0.08,0.76-1.31l-1.31-3.59c-0.34-0.97-0.51-1.31-0.63-1.52h-0.08c-0.13,0.17-0.3,0.55-0.67,1.43l-1.52,3.76
			c-0.46,1.14-0.38,1.22,0.55,1.22L395.96,510.24L395.96,510.24z M418.11,504.24c0-2.91-0.17-3.08-1.99-3.38l-0.8-0.13
			c-0.3-0.21-0.26-0.93,0.08-1.05c1.65,0.09,2.96,0.12,4.3,0.12c1.35,0,2.66-0.04,4.31-0.12c0.34,0.12,0.38,0.84,0.08,1.05
			l-0.8,0.13c-1.82,0.29-1.98,0.46-1.98,3.38v9.46c0,2.91,0.17,3.08,1.98,3.38l0.8,0.13c0.3,0.21,0.25,0.93-0.08,1.05
			c-1.61-0.08-3-0.13-4.31-0.13c-1.35,0-2.66,0.04-4.3,0.13c-0.34-0.13-0.38-0.84-0.08-1.05l0.8-0.13c1.82-0.3,1.99-0.46,1.99-3.38
			V504.24z M449.77,514.33c0-1.94-0.04-2.2-1.94-2.53l-1.35-0.25c-0.3-0.21-0.3-0.8,0.04-1.05c1.69,0.08,3.55,0.12,4.77,0.12
			c1.18,0,2.57-0.04,3.59-0.12c0.34,0.21,0.38,0.8,0.13,1.05l-0.76,0.17c-1.1,0.26-1.27,0.51-1.27,2.32v1.18
			c0,1.01,0.08,1.65,0.67,1.94c0.17,0.13,0.17,0.51-0.04,0.59c-0.46,0-1.35,0.25-2.53,0.46c-1.14,0.21-2.62,0.51-4.22,0.51
			c-3.76,0-6.84-0.89-9.08-3.12c-1.77-1.77-2.62-4.22-2.62-6.42c0-2.36,0.84-4.77,2.66-6.63c1.94-1.98,4.81-3.34,9.33-3.34
			c2.32,0,4.39,0.59,5.66,0.85c0.04,0.84,0.13,2.53,0.38,4.77c-0.21,0.38-0.85,0.42-1.1,0.04c-1.1-3.33-2.91-4.43-5.99-4.43
			c-4.43,0-7.18,3.42-7.18,8.36c0,5.19,3.21,8.7,8.32,8.7c2.24,0,2.53-0.42,2.53-2.11L449.77,514.33L449.77,514.33z M482.64,506.31
			c0-4.22-0.25-5.28-1.82-5.45l-1.35-0.13c-0.3-0.25-0.25-0.84,0.08-1.05c1.56,0.09,2.53,0.12,3.76,0.12s2.15-0.04,3.5-0.12
			c0.34,0.21,0.34,0.84,0.04,1.05l-1.27,0.13c-1.1,0.13-1.43,1.27-1.43,5.45v7.09c0,0.85,0,4.27,0.13,4.9
			c-0.13,0.25-0.51,0.46-0.89,0.38c-0.46-0.59-1.31-1.48-3.93-4.31l-6.42-6.84c-1.6-1.69-2.7-2.79-3.25-3.25
			c-0.17,0-0.17,0.46-0.17,1.77v5.57c0,4.22,0.25,5.32,1.82,5.45l1.35,0.13c0.34,0.25,0.25,0.84-0.08,1.05
			c-1.56-0.08-2.53-0.13-3.76-0.13c-1.22,0-2.03,0.04-3.5,0.13c-0.34-0.17-0.34-0.84-0.04-1.05l1.27-0.13
			c1.1-0.13,1.43-1.27,1.43-5.45v-7.55c0-1.4-0.04-1.99-0.89-2.62c-0.34-0.25-1.14-0.51-1.56-0.59l-0.63-0.13
			c-0.3-0.25-0.3-0.89,0.08-1.05c1.6,0.12,2.74,0.12,3.63,0.12c0.59,0,1.18-0.04,1.69-0.12c0.84,1.6,2.41,3.42,4.14,5.19l3.97,4.1
			c0.93,0.93,3.38,3.59,3.84,3.92c0.25-0.08,0.25-0.67,0.25-1.69v-4.89H482.64z"/>
	</g>
	<g>
		<defs>
			<rect id="SVGID_00000098199476643309214630000008658462005741578174_" x="258.54" y="115.74" width="236.37" height="459.23"/>
		</defs>
		<clipPath id="SVGID_00000169521432648407586890000018347890192467291296_">
			<use xlink:href="#SVGID_00000098199476643309214630000008658462005741578174_"  style="overflow:visible;"/>
		</clipPath>
		<path style="clip-path:url(#SVGID_00000169521432648407586890000018347890192467291296_);fill:#002677;" d="M287.43,398.88
			c2.09,0,2.36,0,2.36-1.7v-3.99c0-4.52-0.26-4.78-3.07-5.23l-1.24-0.2c-0.46-0.33-0.39-1.44,0.13-1.64c2.55,0.13,4.58,0.2,6.67,0.2
			c2.09,0,4.12-0.07,6.67-0.2c0.52,0.2,0.59,1.31,0.13,1.64l-1.24,0.2c-2.81,0.46-3.08,0.72-3.08,5.23v14.66
			c0,4.52,0.26,4.84,3.08,5.24l1.51,0.2c0.46,0.33,0.39,1.44-0.13,1.64c-2.75-0.13-4.91-0.2-6.94-0.2c-2.09,0-4.12,0.07-6.67,0.2
			c-0.52-0.2-0.59-1.31-0.13-1.64l1.24-0.2c2.81-0.46,3.07-0.72,3.07-5.24v-5.17c0-1.64-0.13-1.7-2.36-1.7h-11.52
			c-2.23,0-2.36,0.07-2.36,1.7v5.17c0,4.52,0.26,4.91,3.08,5.24l1.77,0.2c0.46,0.33,0.39,1.44-0.13,1.64
			c-3.01-0.13-5.17-0.2-7.2-0.2c-2.1,0-4.12,0.07-6.15,0.2c-0.52-0.2-0.59-1.31-0.13-1.64l0.72-0.2c2.75-0.72,3.08-0.72,3.08-5.24
			v-14.66c0-4.52-0.26-4.84-3.08-5.23l-1.5-0.2c-0.46-0.33-0.39-1.44,0.13-1.64c2.82,0.13,4.84,0.2,6.94,0.2
			c2.09,0,4.12-0.07,6.41-0.2c0.52,0.2,0.59,1.31,0.13,1.64l-0.98,0.2c-2.75,0.52-3.08,0.72-3.08,5.23v3.99c0,1.7,0.26,1.7,2.36,1.7
			H287.43z"/>
	</g>
	<g>
		<defs>
			<rect id="SVGID_00000088104124257615692950000000990067744659065013_" x="258.54" y="115.74" width="236.37" height="459.23"/>
		</defs>
		<clipPath id="SVGID_00000109028084886271283450000014818346166987983008_">
			<use xlink:href="#SVGID_00000088104124257615692950000000990067744659065013_"  style="overflow:visible;"/>
		</clipPath>
		<path style="clip-path:url(#SVGID_00000109028084886271283450000014818346166987983008_);fill:#002677;" d="M318.36,393.19
			c0-4.52-0.33-4.65-3.08-5.24l-0.91-0.2c-0.46-0.33-0.39-1.44,0.13-1.64c2.23,0.13,4.25,0.19,6.35,0.19c2.09,0,4.12-0.06,6.67-0.19
			c0.52,0.19,0.59,1.31,0.13,1.64l-1.24,0.2c-2.81,0.46-3.08,0.72-3.08,5.24v9.23c0,6.54,2.16,10.99,8.51,10.99
			c5.89,0,8.44-4.45,8.44-10.93v-6.08c0-6.54-0.39-8.05-3.21-8.44l-1.37-0.2c-0.46-0.39-0.39-1.31,0.13-1.64
			c2.09,0.13,3.6,0.19,5.5,0.19s3.34-0.06,5.43-0.19c0.52,0.33,0.52,1.31,0.06,1.64l-1.96,0.2c-1.7,0.2-2.23,1.96-2.23,8.44v6.48
			c0,8.38-3.86,12.76-12.17,12.76c-4.19,0-7.33-0.85-9.29-2.75c-1.96-1.96-2.81-4.97-2.81-9.23L318.36,393.19L318.36,393.19z"/>
	</g>
	<g>
		<defs>
			<rect id="SVGID_00000129179918794627781640000002440442573308816810_" x="258.54" y="115.74" width="236.37" height="459.23"/>
		</defs>
		<clipPath id="SVGID_00000032648222799544722210000009494550986392851859_">
			<use xlink:href="#SVGID_00000129179918794627781640000002440442573308816810_"  style="overflow:visible;"/>
		</clipPath>
		<path style="clip-path:url(#SVGID_00000032648222799544722210000009494550986392851859_);fill:#002677;" d="M377.69,403.2
			c0.46,0.85,2.09,3.8,2.35,3.99c0.26-0.13,1.44-2.23,2.68-4.58l3.27-6.28c3.14-6.02,3.47-7.13,4.51-10.21
			c1.44,0.13,2.75,0.2,3.8,0.2c1.57,0,3.47-0.07,5.37-0.2c0.59,0.2,0.65,1.31,0.2,1.64l-1.44,0.2c-3.01,0.39-3.14,1.64-3.14,5.5
			c0,6.94,0,12.5,0.33,16.43c0.13,1.44,0.13,3.01,2.16,3.21l1.9,0.2c0.46,0.26,0.46,1.37-0.06,1.63c-2.36-0.13-4.91-0.2-6.54-0.2
			c-1.9,0-3.93,0.07-5.76,0.2c-0.46-0.33-0.52-1.37-0.07-1.63l1.44-0.2c2.09-0.26,2.09-0.79,2.09-3.4v-15.12c0-0.79,0-1.77-0.2-1.9
			c-0.2,0-1.9,3.27-2.81,4.97l-3.99,7.52c-0.52,0.98-3.93,7.79-4.64,9.88c-0.33,0.26-0.85,0.26-1.24,0
			c-0.72-2.35-2.75-6.54-3.86-8.7l-4.25-8.24c-0.72-1.44-2.09-4.91-2.62-5.1c-0.26,0.33-0.33,4.71-0.39,6.54
			c-0.06,2.62-0.13,5.37-0.13,8.57c0,3.34,0.07,4.78,1.9,4.97l2.16,0.2c0.46,0.26,0.39,1.37-0.07,1.63c-1.7-0.13-3.6-0.2-5.37-0.2
			c-1.44,0-3.4,0.07-5.43,0.2c-0.46-0.26-0.52-1.31,0-1.63l1.37-0.2c2.16-0.33,2.36-0.98,2.68-3.27c0.52-3.53,0.92-14.07,0.92-18.52
			c0-2.09-0.72-3.07-2.94-3.34l-1.57-0.2c-0.39-0.33-0.46-1.37,0.13-1.64c1.77,0.13,3.27,0.2,5.04,0.2c1.31,0,2.68,0,4.78-0.2
			c0,2.88,1.18,4.97,3.4,9.29L377.69,403.2z"/>
	</g>
	<g>
		<defs>
			<rect id="SVGID_00000088133173188412357730000015147566366057306541_" x="258.54" y="115.74" width="236.37" height="459.23"/>
		</defs>
		<clipPath id="SVGID_00000031182839206508852960000015258071811925625998_">
			<use xlink:href="#SVGID_00000088133173188412357730000015147566366057306541_"  style="overflow:visible;"/>
		</clipPath>
		<path style="clip-path:url(#SVGID_00000031182839206508852960000015258071811925625998_);fill:#002677;" d="M423.47,404.58
			c-1.5,0-1.7,0.07-2.22,1.57l-1.5,4.19c-0.72,2.09-0.52,2.36,0.72,2.62l1.77,0.33c0.52,0.33,0.46,1.51-0.2,1.64
			c-1.64-0.13-3.34-0.2-5.17-0.2c-1.83,0-3.4,0.13-4.58,0.2c-0.59-0.26-0.59-1.31-0.13-1.64l1.5-0.33c2.03-0.46,2.75-1.18,4.06-4.32
			l6.28-15.05c1.11-2.68,1.57-4.25,1.7-5.5c1.18-0.46,2.42-1.7,2.75-2.49c0.52-0.2,0.92-0.07,1.05,0.33
			c0.26,0.65,1.31,4.06,2.81,8.05l5.89,15.64c0.79,2.16,1.37,3.01,3.73,3.47l1.05,0.2c0.59,0.33,0.46,1.51-0.2,1.64
			c-1.7-0.13-3.21-0.2-5.43-0.2c-2.35,0-4.25,0.07-5.89,0.2c-0.65-0.2-0.72-1.37-0.13-1.64l1.31-0.2c1.7-0.26,1.64-0.65,0.85-2.68
			l-1.57-4.25c-0.52-1.51-0.72-1.57-2.22-1.57h-6.23V404.58z M428.64,402.48c1.7,0,1.9-0.13,1.18-2.03l-2.03-5.56
			c-0.52-1.5-0.79-2.03-0.98-2.36h-0.13c-0.2,0.26-0.46,0.85-1.05,2.23l-2.36,5.82c-0.72,1.77-0.59,1.9,0.85,1.9L428.64,402.48
			L428.64,402.48z"/>
	</g>
	<g>
		<defs>
			<rect id="SVGID_00000042725128912393386590000008955169952015264666_" x="258.54" y="115.74" width="236.37" height="459.23"/>
		</defs>
		<clipPath id="SVGID_00000168806456876711414880000008909471132622270373_">
			<use xlink:href="#SVGID_00000042725128912393386590000008955169952015264666_"  style="overflow:visible;"/>
		</clipPath>
		<path style="clip-path:url(#SVGID_00000168806456876711414880000008909471132622270373_);fill:#002677;" d="M482.21,396.4
			c0-6.54-0.39-8.18-2.81-8.44l-2.09-0.2c-0.46-0.39-0.39-1.31,0.13-1.64c2.42,0.13,3.93,0.2,5.83,0.2s3.34-0.06,5.43-0.2
			c0.52,0.33,0.52,1.31,0.06,1.64l-1.96,0.2c-1.7,0.2-2.23,1.96-2.23,8.44v10.99c0,1.31,0,6.61,0.2,7.59
			c-0.2,0.39-0.79,0.72-1.38,0.59c-0.72-0.92-2.03-2.29-6.08-6.67l-9.95-10.6c-2.49-2.62-4.19-4.32-5.04-5.04
			c-0.26,0-0.26,0.72-0.26,2.75v8.64c0,6.54,0.39,8.25,2.82,8.44l2.1,0.2c0.52,0.39,0.39,1.31-0.13,1.63
			c-2.42-0.13-3.93-0.2-5.83-0.2s-3.14,0.07-5.43,0.2c-0.53-0.26-0.53-1.31-0.07-1.63l1.96-0.2c1.7-0.2,2.23-1.96,2.23-8.44v-11.71
			c0-2.16-0.07-3.07-1.37-4.06c-0.52-0.39-1.77-0.79-2.42-0.92l-0.98-0.2c-0.46-0.39-0.46-1.37,0.13-1.64
			c2.49,0.2,4.25,0.2,5.63,0.2c0.92,0,1.83-0.06,2.62-0.2c1.31,2.49,3.73,5.3,6.41,8.05l6.15,6.35c1.44,1.44,5.24,5.56,5.96,6.09
			c0.39-0.13,0.39-1.05,0.39-2.62v-7.59H482.21z"/>
	</g>
	<g>
		<defs>
			<rect id="SVGID_00000031181992833304124490000011618907683850575017_" x="258.54" y="115.74" width="236.37" height="459.23"/>
		</defs>
		<clipPath id="SVGID_00000174569331432228883570000003778855128342565307_">
			<use xlink:href="#SVGID_00000031181992833304124490000011618907683850575017_"  style="overflow:visible;"/>
		</clipPath>
		<path style="clip-path:url(#SVGID_00000174569331432228883570000003778855128342565307_);fill:#002677;" d="M268.58,450.96
			c0-4.25-0.07-5.36-1.57-5.56l-1.83-0.26c-0.52-0.06-0.65-1.44,0-1.64c3.6-0.26,7.26-0.39,10.86-0.39c6.09,0,12.7,0.98,12.7,7.85
			c0,4.19-3.27,6.09-5.83,7c-0.26,0.26-0.2,0.65,0,0.98c3.27,5.5,6.15,8.7,8.31,10.47c1.18,0.98,2.42,1.31,3.47,1.37
			c0.26,0.26,0.26,0.85,0,1.05c-0.59,0.2-1.51,0.33-2.75,0.33c-3.93,0-6.28-1.24-9.16-4.91c-1.64-2.09-3.4-4.97-4.78-7.07
			c-0.52-0.79-1.57-1.05-2.62-1.05c-1.7,0-1.83,0.13-1.83,1.05v4.65c0,4.51,0.26,4.84,3.08,5.24l1.51,0.2
			c0.46,0.33,0.39,1.44-0.13,1.64c-2.75-0.13-4.91-0.2-6.94-0.2c-2.09,0-4.12,0.07-6.41,0.2c-0.65-0.2-0.72-1.38-0.13-1.64l0.98-0.2
			c2.81-0.59,3.08-0.72,3.08-5.24v-13.87H268.58z M273.56,455.73c0,1.64,0.07,1.64,3.27,1.64c4.26,0,6.48-1.7,6.48-6.22
			c0-3.27-2.29-6.15-6.87-6.15c-2.42,0-2.88,0.13-2.88,1.83V455.73z"/>
	</g>
	<g>
		<defs>
			<rect id="SVGID_00000072246150225790357770000017725914256768177087_" x="258.54" y="115.74" width="236.37" height="459.23"/>
		</defs>
		<clipPath id="SVGID_00000109710806890090777360000012907187116035907232_">
			<use xlink:href="#SVGID_00000072246150225790357770000017725914256768177087_"  style="overflow:visible;"/>
		</clipPath>
		<path style="clip-path:url(#SVGID_00000109710806890090777360000012907187116035907232_);fill:#002677;" d="M310.51,450.17
			c0-4.52-0.26-4.78-3.08-5.24l-1.24-0.2c-0.46-0.33-0.39-1.44,0.13-1.64c2.55,0.13,4.58,0.19,6.67,0.19c2.09,0,4.12-0.06,6.67-0.19
			c0.52,0.19,0.59,1.31,0.13,1.64l-1.24,0.2c-2.81,0.46-3.08,0.72-3.08,5.24v14.66c0,4.52,0.26,4.78,3.08,5.23l1.24,0.2
			c0.46,0.33,0.39,1.44-0.13,1.63c-2.49-0.13-4.65-0.2-6.67-0.2c-2.1,0-4.12,0.07-6.67,0.2c-0.53-0.2-0.59-1.31-0.13-1.63l1.24-0.2
			c2.81-0.46,3.08-0.72,3.08-5.23V450.17z"/>
	</g>
	<g>
		<defs>
			<rect id="SVGID_00000119796245050884313090000008093726082805467275_" x="258.54" y="115.74" width="236.37" height="459.23"/>
		</defs>
		<clipPath id="SVGID_00000101077119328354706920000003618274349998105486_">
			<use xlink:href="#SVGID_00000119796245050884313090000008093726082805467275_"  style="overflow:visible;"/>
		</clipPath>
		<path style="clip-path:url(#SVGID_00000101077119328354706920000003618274349998105486_);fill:#002677;" d="M356.3,465.81
			c0-3.01-0.07-3.4-3.01-3.92l-2.09-0.39c-0.46-0.33-0.46-1.24,0.07-1.64c2.62,0.13,5.5,0.2,7.39,0.2c1.83,0,3.99-0.06,5.56-0.2
			c0.52,0.33,0.59,1.24,0.2,1.64l-1.18,0.26c-1.7,0.39-1.96,0.79-1.96,3.6v1.83c0,1.57,0.13,2.55,1.05,3.01
			c0.26,0.2,0.26,0.79-0.06,0.92c-0.72,0-2.09,0.39-3.93,0.72c-1.77,0.33-4.06,0.79-6.54,0.79c-5.82,0-10.6-1.38-14.07-4.84
			c-2.75-2.75-4.06-6.54-4.06-9.95c0-3.66,1.31-7.39,4.12-10.27c3.01-3.08,7.46-5.17,14.46-5.17c3.6,0,6.81,0.92,8.77,1.31
			c0.06,1.31,0.2,3.93,0.59,7.4c-0.33,0.59-1.31,0.65-1.7,0.06c-1.7-5.17-4.51-6.87-9.29-6.87c-6.87,0-11.12,5.3-11.12,12.96
			c0,8.05,4.97,13.48,12.89,13.48c3.47,0,3.93-0.65,3.93-3.27v-1.66H356.3z"/>
	</g>
	<g>
		<defs>
			<rect id="SVGID_00000023991267611737837230000014525655083135040437_" x="258.54" y="115.74" width="236.37" height="459.23"/>
		</defs>
		<clipPath id="SVGID_00000077316450892328546460000008184295771827769006_">
			<use xlink:href="#SVGID_00000023991267611737837230000014525655083135040437_"  style="overflow:visible;"/>
		</clipPath>
		<path style="clip-path:url(#SVGID_00000077316450892328546460000008184295771827769006_);fill:#002677;" d="M401.3,455.86
			c2.1,0,2.36,0,2.36-1.7v-3.99c0-4.52-0.26-4.78-3.08-5.23l-1.24-0.2c-0.46-0.33-0.39-1.44,0.13-1.64c2.55,0.13,4.58,0.2,6.67,0.2
			c2.09,0,4.12-0.07,6.67-0.2c0.52,0.2,0.59,1.31,0.13,1.64l-1.24,0.2c-2.81,0.46-3.07,0.72-3.07,5.23v14.66
			c0,4.52,0.26,4.84,3.07,5.24l1.51,0.2c0.46,0.33,0.39,1.44-0.13,1.64c-2.75-0.13-4.91-0.2-6.94-0.2c-2.09,0-4.12,0.07-6.67,0.2
			c-0.52-0.2-0.59-1.31-0.13-1.64l1.24-0.2c2.81-0.46,3.08-0.72,3.08-5.24v-5.17c0-1.64-0.13-1.7-2.36-1.7h-11.52
			c-2.23,0-2.36,0.07-2.36,1.7v5.17c0,4.52,0.26,4.91,3.08,5.24l1.77,0.2c0.46,0.33,0.39,1.44-0.13,1.64
			c-3.01-0.13-5.17-0.2-7.2-0.2c-2.09,0-4.12,0.07-6.15,0.2c-0.52-0.2-0.59-1.31-0.13-1.64l0.72-0.2c2.75-0.72,3.08-0.72,3.08-5.24
			v-14.66c0-4.52-0.26-4.84-3.08-5.23l-1.5-0.2c-0.46-0.33-0.39-1.44,0.13-1.64c2.81,0.13,4.84,0.2,6.94,0.2
			c2.09,0,4.12-0.07,6.41-0.2c0.52,0.2,0.59,1.31,0.13,1.64l-0.98,0.2c-2.75,0.52-3.08,0.72-3.08,5.23v3.99c0,1.7,0.26,1.7,2.36,1.7
			H401.3z"/>
	</g>
	<g>
		<defs>
			<rect id="SVGID_00000055689999236320530790000009209915281979450500_" x="258.54" y="115.74" width="236.37" height="459.23"/>
		</defs>
		<clipPath id="SVGID_00000125571005164853466250000002802798128776769708_">
			<use xlink:href="#SVGID_00000055689999236320530790000009209915281979450500_"  style="overflow:visible;"/>
		</clipPath>
		<path style="clip-path:url(#SVGID_00000125571005164853466250000002802798128776769708_);fill:#002677;" d="M437.73,446.9
			c0-1.7-0.07-1.7-1.37-1.7h-2.03c-3.99,0-5.69,0.39-7.26,4.91c-0.66,0.39-1.38,0.2-1.64-0.33c0.72-2.81,1.44-6.09,1.77-7.72
			c0.26-0.26,0.92-0.26,1.18,0c0.07,1.31,0.98,1.24,3.6,1.24h18.19c2.42,0,2.88-0.06,3.4-1.24c0.46-0.26,0.98-0.13,1.18,0.2
			c-0.52,1.7-0.79,5.17-0.66,7.66c-0.26,0.52-1.37,0.59-1.63,0.07c-0.46-4.25-2.16-4.78-6.09-4.78h-2.23c-1.24,0-1.44,0-1.44,1.7
			v17.93c0,4.52,0.26,4.91,3.08,5.23l1.77,0.2c0.46,0.33,0.39,1.44-0.13,1.63c-2.68-0.13-5.17-0.2-7.2-0.2c-2.1,0-4.45,0.07-7.2,0.2
			c-0.52-0.2-0.59-1.31-0.13-1.63l1.77-0.2c2.81-0.33,3.07-0.72,3.07-5.23L437.73,446.9L437.73,446.9z"/>
	</g>
	<g>
		<defs>
			<rect id="SVGID_00000043440180192243617870000015963102117637140401_" x="258.54" y="115.74" width="236.37" height="459.23"/>
		</defs>
		<clipPath id="SVGID_00000101089958555373853620000001591804160205293741_">
			<use xlink:href="#SVGID_00000043440180192243617870000015963102117637140401_"  style="overflow:visible;"/>
		</clipPath>
		<path style="clip-path:url(#SVGID_00000101089958555373853620000001591804160205293741_);fill:#002677;" d="M474.09,458.35
			c-3.14-1.64-5.83-4.19-5.83-7.85c0-4.78,3.67-8.11,10.28-8.11c2.29,0,3.86,0.59,6.08,0.98c0.52,1.11,0.98,3.6,0.92,6.41
			c-0.2,0.52-1.37,0.59-1.7,0.13c-0.52-2.29-2.22-5.63-6.08-5.63s-5.3,2.23-5.3,4.45c0,2.36,1.77,3.79,4.39,5.17l4.05,2.09
			c2.36,1.18,5.3,3.93,5.3,8.31c0,5.1-4.19,8.31-10.67,8.31c-3.99,0-6.61-1.37-7.53-2.03c-0.59-0.92-1.37-3.27-1.37-6.74
			c0.26-0.65,1.24-0.72,1.7-0.13c0.52,2.36,3.4,7,7.79,7c3.34,0,5.5-1.7,5.5-4.71c0-2.1-0.85-4.26-4.58-6.15L474.09,458.35z"/>
	</g>
	<g>
		<defs>
			<rect id="SVGID_00000124839794574502451200000007331706027369631377_" x="258.54" y="115.74" width="236.37" height="459.23"/>
		</defs>
		<clipPath id="SVGID_00000119094147508544930030000015295630641053803912_">
			<use xlink:href="#SVGID_00000124839794574502451200000007331706027369631377_"  style="overflow:visible;"/>
		</clipPath>
		<path style="clip-path:url(#SVGID_00000119094147508544930030000015295630641053803912_);fill:#002677;" d="M283.17,500.02
			c0,0.89,0.13,2.95,0.38,4.64c-0.17,0.34-0.8,0.42-1.1,0.08c-0.63-2.32-2.07-4.3-5.87-4.3c-3.63,0-7.22,2.45-7.22,8.19
			c0,5.66,3.63,8.87,7.6,8.87s5.62-3.17,6.08-4.27c0.21-0.38,0.89-0.38,1.1,0.04c-0.21,1.85-0.89,3.8-1.39,4.56
			c-1.22,0.21-2.79,0.89-5.7,0.89c-2.66,0-5.28-0.46-7.43-1.94c-2.28-1.56-4.01-4.14-4.01-7.51c0-3.42,1.43-5.95,3.55-7.6
			c2.07-1.61,4.98-2.45,8.23-2.45C280.13,499.22,282.83,500.02,283.17,500.02"/>
	</g>
	<g>
		<defs>
			<rect id="SVGID_00000102533745104342638720000009369208258559531407_" x="258.54" y="115.74" width="236.37" height="459.23"/>
		</defs>
		<clipPath id="SVGID_00000010288694155248637390000014944626618383687598_">
			<use xlink:href="#SVGID_00000102533745104342638720000009369208258559531407_"  style="overflow:visible;"/>
		</clipPath>
		<path style="clip-path:url(#SVGID_00000010288694155248637390000014944626618383687598_);fill:#002677;" d="M300.68,511.59
			c-0.97,0-1.1,0.04-1.43,1.01l-0.97,2.7c-0.47,1.35-0.34,1.52,0.46,1.69l1.14,0.21c0.34,0.21,0.3,0.97-0.13,1.05
			c-1.05-0.09-2.15-0.13-3.34-0.13s-2.2,0.09-2.96,0.13c-0.38-0.17-0.38-0.84-0.08-1.05l0.97-0.21c1.31-0.29,1.77-0.76,2.62-2.78
			l4.05-9.71c0.72-1.73,1.01-2.74,1.1-3.55c0.76-0.3,1.56-1.1,1.77-1.6c0.34-0.12,0.59-0.04,0.68,0.21
			c0.17,0.42,0.84,2.62,1.82,5.19l3.8,10.09c0.51,1.39,0.89,1.94,2.41,2.24l0.68,0.13c0.38,0.21,0.3,0.97-0.13,1.05
			c-1.1-0.09-2.07-0.13-3.5-0.13c-1.52,0-2.74,0.04-3.8,0.13c-0.42-0.13-0.47-0.89-0.09-1.05l0.84-0.13
			c1.1-0.17,1.06-0.42,0.55-1.73l-1.01-2.74c-0.34-0.97-0.47-1.01-1.44-1.01L300.68,511.59L300.68,511.59z M304.02,510.23
			c1.1,0,1.22-0.08,0.76-1.31l-1.31-3.59c-0.34-0.97-0.51-1.31-0.63-1.52h-0.08c-0.13,0.17-0.3,0.55-0.68,1.44l-1.52,3.76
			c-0.46,1.14-0.38,1.22,0.55,1.22L304.02,510.23L304.02,510.23z"/>
	</g>
	<g>
		<defs>
			<rect id="SVGID_00000033326743223382676440000012020554716108435841_" x="258.54" y="115.74" width="236.37" height="459.23"/>
		</defs>
		<clipPath id="SVGID_00000117667266559111637350000016711977003127125122_">
			<use xlink:href="#SVGID_00000033326743223382676440000012020554716108435841_"  style="overflow:visible;"/>
		</clipPath>
		<path style="clip-path:url(#SVGID_00000117667266559111637350000016711977003127125122_);fill:#002677;" d="M334.86,510.7
			c0.3,0.55,1.35,2.45,1.52,2.58c0.17-0.08,0.93-1.43,1.73-2.96l2.11-4.05c2.03-3.88,2.24-4.6,2.91-6.58
			c0.93,0.08,1.77,0.13,2.45,0.13c1.01,0,2.24-0.04,3.46-0.13c0.38,0.13,0.42,0.84,0.13,1.05l-0.93,0.13
			c-1.94,0.25-2.03,1.05-2.03,3.55c0,4.48,0,8.06,0.21,10.6c0.08,0.93,0.08,1.94,1.39,2.07l1.23,0.13c0.3,0.17,0.3,0.88-0.04,1.05
			c-1.52-0.09-3.17-0.13-4.22-0.13c-1.22,0-2.53,0.04-3.72,0.13c-0.29-0.21-0.34-0.89-0.04-1.05l0.93-0.13
			c1.35-0.17,1.35-0.51,1.35-2.19v-9.75c0-0.51,0-1.14-0.13-1.22c-0.13,0-1.22,2.11-1.82,3.21l-2.58,4.85
			c-0.34,0.63-2.53,5.02-3,6.37c-0.21,0.17-0.55,0.17-0.8,0c-0.46-1.52-1.77-4.22-2.49-5.61l-2.74-5.32
			c-0.46-0.93-1.35-3.17-1.69-3.29c-0.17,0.21-0.21,3.04-0.25,4.22c-0.04,1.69-0.08,3.46-0.08,5.53c0,2.15,0.04,3.08,1.22,3.21
			l1.39,0.13c0.3,0.17,0.25,0.88-0.04,1.05c-1.1-0.09-2.32-0.13-3.46-0.13c-0.93,0-2.2,0.04-3.5,0.13c-0.3-0.17-0.34-0.84,0-1.05
			l0.89-0.13c1.39-0.21,1.52-0.63,1.73-2.11c0.34-2.28,0.59-9.08,0.59-11.95c0-1.35-0.46-1.98-1.9-2.15l-1.01-0.13
			c-0.25-0.21-0.3-0.89,0.08-1.05c1.14,0.08,2.11,0.13,3.25,0.13c0.84,0,1.73,0,3.08-0.13c0,1.86,0.76,3.21,2.2,5.99L334.86,510.7z"
			/>
	</g>
	<g>
		<defs>
			<rect id="SVGID_00000045599006975858546100000014103294412397387425_" x="258.54" y="115.74" width="236.37" height="459.23"/>
		</defs>
		<clipPath id="SVGID_00000080195624928323192700000005734199996343455417_">
			<use xlink:href="#SVGID_00000045599006975858546100000014103294412397387425_"  style="overflow:visible;"/>
		</clipPath>
		<path style="clip-path:url(#SVGID_00000080195624928323192700000005734199996343455417_);fill:#002677;" d="M363.98,504.75
			c0-2.74-0.04-3.38-1.01-3.55l-1.27-0.21c-0.38-0.13-0.34-0.93,0.04-1.06c2.36-0.17,4.52-0.25,6.75-0.25c2.37,0,3.88,0.3,5.07,0.72
			c1.39,0.51,3.42,1.94,3.42,4.94c0,2.91-1.94,4.26-3.51,4.81c-1.43,0.51-3.04,0.72-3.84,0.64c-0.21-0.21-0.21-0.59-0.04-0.76
			c2.62-0.55,3.93-2.11,3.93-4.81c0-2.79-1.73-4.3-4.6-4.3c-1.73,0-1.73,0.25-1.73,1.43v11.36c0,2.91,0.17,3.12,1.98,3.38l0.97,0.13
			c0.3,0.21,0.25,0.93-0.08,1.05c-1.78-0.09-3.17-0.13-4.48-0.13c-1.35,0-2.66,0.04-4.14,0.13c-0.34-0.13-0.38-0.84-0.08-1.05
			l0.63-0.13c1.81-0.38,1.98-0.46,1.98-3.38L363.98,504.75L363.98,504.75z"/>
	</g>
	<g>
		<defs>
			<rect id="SVGID_00000068675130573095396720000007651328429801759401_" x="258.54" y="115.74" width="236.37" height="459.23"/>
		</defs>
		<clipPath id="SVGID_00000116205026603232793530000008481918431000408475_">
			<use xlink:href="#SVGID_00000068675130573095396720000007651328429801759401_"  style="overflow:visible;"/>
		</clipPath>
		<path style="clip-path:url(#SVGID_00000116205026603232793530000008481918431000408475_);fill:#002677;" d="M392.63,511.59
			c-0.97,0-1.1,0.04-1.43,1.01l-0.97,2.7c-0.46,1.35-0.34,1.52,0.46,1.69l1.14,0.21c0.34,0.21,0.3,0.97-0.13,1.05
			c-1.06-0.09-2.15-0.13-3.34-0.13c-1.18,0-2.2,0.09-2.96,0.13c-0.38-0.17-0.38-0.84-0.08-1.05l0.97-0.21
			c1.31-0.29,1.77-0.76,2.62-2.78l4.05-9.71c0.72-1.73,1.01-2.74,1.1-3.55c0.76-0.3,1.56-1.1,1.77-1.6
			c0.34-0.12,0.59-0.04,0.68,0.21c0.17,0.42,0.84,2.62,1.82,5.19l3.8,10.09c0.51,1.39,0.89,1.94,2.41,2.24l0.68,0.13
			c0.38,0.21,0.29,0.97-0.13,1.05c-1.1-0.09-2.07-0.13-3.5-0.13c-1.52,0-2.74,0.04-3.8,0.13c-0.42-0.13-0.46-0.89-0.08-1.05
			l0.84-0.13c1.1-0.17,1.06-0.42,0.55-1.73l-1.02-2.74c-0.34-0.97-0.46-1.01-1.44-1.01L392.63,511.59L392.63,511.59z M395.96,510.23
			c1.1,0,1.23-0.08,0.76-1.31l-1.31-3.59c-0.34-0.97-0.51-1.31-0.63-1.52h-0.08c-0.13,0.17-0.3,0.55-0.68,1.44l-1.52,3.76
			c-0.46,1.14-0.38,1.22,0.55,1.22L395.96,510.23L395.96,510.23z"/>
	</g>
	<g>
		<defs>
			<rect id="SVGID_00000039814295701150498540000009563312991479340187_" x="258.54" y="115.74" width="236.37" height="459.23"/>
		</defs>
		<clipPath id="SVGID_00000057856947500769475820000002603684316630842796_">
			<use xlink:href="#SVGID_00000039814295701150498540000009563312991479340187_"  style="overflow:visible;"/>
		</clipPath>
		<path style="clip-path:url(#SVGID_00000057856947500769475820000002603684316630842796_);fill:#002677;" d="M418.11,504.24
			c0-2.91-0.17-3.08-1.99-3.38l-0.8-0.13c-0.3-0.21-0.26-0.93,0.08-1.06c1.65,0.08,2.95,0.13,4.31,0.13c1.35,0,2.66-0.04,4.3-0.13
			c0.34,0.13,0.38,0.85,0.09,1.06l-0.8,0.13c-1.82,0.3-1.98,0.47-1.98,3.38v9.46c0,2.91,0.17,3.08,1.98,3.38l0.8,0.13
			c0.3,0.21,0.25,0.93-0.09,1.05c-1.6-0.09-3-0.13-4.3-0.13c-1.35,0-2.66,0.04-4.31,0.13c-0.34-0.13-0.38-0.84-0.08-1.05l0.8-0.13
			c1.81-0.3,1.99-0.46,1.99-3.38V504.24z"/>
	</g>
	<g>
		<defs>
			<rect id="SVGID_00000010281833490940825480000012236393607297601416_" x="258.54" y="115.74" width="236.37" height="459.23"/>
		</defs>
		<clipPath id="SVGID_00000016039868512010211340000006459712899329288380_">
			<use xlink:href="#SVGID_00000010281833490940825480000012236393607297601416_"  style="overflow:visible;"/>
		</clipPath>
		<path style="clip-path:url(#SVGID_00000016039868512010211340000006459712899329288380_);fill:#002677;" d="M449.77,514.33
			c0-1.94-0.04-2.2-1.94-2.53l-1.35-0.25c-0.29-0.21-0.29-0.8,0.04-1.05c1.69,0.08,3.55,0.13,4.77,0.13c1.18,0,2.58-0.04,3.59-0.13
			c0.34,0.21,0.38,0.8,0.13,1.05l-0.76,0.17c-1.1,0.25-1.27,0.51-1.27,2.32v1.18c0,1.01,0.08,1.65,0.67,1.94
			c0.17,0.12,0.17,0.51-0.04,0.59c-0.46,0-1.35,0.26-2.53,0.47c-1.14,0.21-2.62,0.51-4.22,0.51c-3.76,0-6.84-0.89-9.08-3.12
			c-1.77-1.77-2.62-4.22-2.62-6.42c0-2.36,0.85-4.77,2.66-6.63c1.94-1.98,4.81-3.33,9.33-3.33c2.32,0,4.39,0.59,5.66,0.84
			c0.04,0.84,0.13,2.53,0.38,4.77c-0.21,0.38-0.84,0.42-1.1,0.04c-1.1-3.33-2.91-4.43-6-4.43c-4.43,0-7.18,3.42-7.18,8.36
			c0,5.19,3.21,8.69,8.32,8.69c2.24,0,2.53-0.42,2.53-2.11L449.77,514.33L449.77,514.33z"/>
	</g>
	<g>
		<defs>
			<rect id="SVGID_00000008121993860642329550000005731030412750484355_" x="258.54" y="115.74" width="236.37" height="459.23"/>
		</defs>
		<clipPath id="SVGID_00000000917059502874670420000007093315849062307487_">
			<use xlink:href="#SVGID_00000008121993860642329550000005731030412750484355_"  style="overflow:visible;"/>
		</clipPath>
		<path style="clip-path:url(#SVGID_00000000917059502874670420000007093315849062307487_);fill:#002677;" d="M482.64,506.31
			c0-4.22-0.25-5.28-1.82-5.45l-1.35-0.13c-0.3-0.25-0.25-0.84,0.08-1.05c1.56,0.08,2.53,0.13,3.76,0.13s2.15-0.04,3.51-0.13
			c0.34,0.21,0.34,0.84,0.04,1.05l-1.27,0.13c-1.1,0.13-1.44,1.27-1.44,5.45v7.09c0,0.84,0,4.27,0.13,4.9
			c-0.13,0.25-0.51,0.46-0.89,0.38c-0.46-0.59-1.31-1.48-3.93-4.31l-6.42-6.84c-1.6-1.69-2.7-2.79-3.25-3.25
			c-0.17,0-0.17,0.46-0.17,1.77v5.57c0,4.22,0.25,5.32,1.82,5.45l1.35,0.13c0.34,0.25,0.25,0.84-0.08,1.05
			c-1.56-0.09-2.53-0.13-3.76-0.13c-1.22,0-2.03,0.04-3.5,0.13c-0.34-0.17-0.34-0.84-0.04-1.05l1.27-0.13
			c1.1-0.12,1.43-1.27,1.43-5.45v-7.56c0-1.39-0.04-1.98-0.89-2.62c-0.34-0.25-1.14-0.51-1.56-0.59l-0.63-0.13
			c-0.3-0.25-0.3-0.89,0.09-1.05c1.6,0.13,2.74,0.13,3.63,0.13c0.59,0,1.18-0.04,1.69-0.13c0.84,1.6,2.4,3.42,4.14,5.19l3.97,4.1
			c0.93,0.93,3.38,3.59,3.84,3.93c0.25-0.08,0.25-0.67,0.25-1.69L482.64,506.31L482.64,506.31z"/>
	</g>
	<g>
		<defs>
			<rect id="SVGID_00000163756617164598432160000003514499649493619367_" x="258.54" y="115.74" width="236.37" height="459.23"/>
		</defs>
		<clipPath id="SVGID_00000146473969272281137540000003694923742724707753_">
			<use xlink:href="#SVGID_00000163756617164598432160000003514499649493619367_"  style="overflow:visible;"/>
		</clipPath>
		<path style="clip-path:url(#SVGID_00000146473969272281137540000003694923742724707753_);fill:#002677;" d="M273.84,546.17
			c1.4,0,2.64-0.02,3.1-0.07c0,0.48,0,2.13,0.04,3.16c-0.09,0.17-0.48,0.22-0.7,0.09c-0.22-1.27-0.57-1.91-1.4-2.13
			c-0.59-0.15-1.14-0.18-1.84-0.18h-1.12c-0.92,0-0.92,0.04-0.92,1.27v3.93c0,0.55,0.02,0.59,0.53,0.59h1.29
			c1.91,0,2.24-0.04,2.46-0.97l0.17-0.75c0.13-0.15,0.55-0.15,0.66,0.02c-0.02,0.57-0.07,1.38-0.07,2.2s0.04,1.6,0.07,2.28
			c-0.11,0.18-0.53,0.18-0.66,0.02l-0.17-0.86c-0.2-0.92-0.55-0.97-2.46-0.97h-1.29c-0.5,0-0.53,0.04-0.53,0.59v3.07
			c0,2.33,0.2,2.35,1.23,2.48l0.92,0.11c0.15,0.15,0.13,0.55-0.04,0.64c-1.4-0.04-2.39-0.07-3.36-0.07c-0.97,0-1.95,0.02-2.96,0.07
			c-0.17-0.09-0.2-0.48-0.04-0.64l0.48-0.07c1.03-0.13,1.23-0.2,1.23-2.52v-8.16c0-2.33-0.2-2.39-1.23-2.55l-0.29-0.04
			c-0.15-0.15-0.13-0.55,0.04-0.64c0.77,0.04,1.76,0.07,2.72,0.07h4.14V546.17z"/>
	</g>
	<g>
		<defs>
			<rect id="SVGID_00000139282303794639374460000005701730966398194575_" x="258.54" y="115.74" width="236.37" height="459.23"/>
		</defs>
		<clipPath id="SVGID_00000011739952097232701670000011845238929100353209_">
			<use xlink:href="#SVGID_00000139282303794639374460000005701730966398194575_"  style="overflow:visible;"/>
		</clipPath>
		<path style="clip-path:url(#SVGID_00000011739952097232701670000011845238929100353209_);fill:#002677;" d="M303.8,553.46
			c0,4.32-3.29,7.55-7.73,7.55c-4.96,0-7.81-3.49-7.81-7.4c0-4.48,3.25-7.79,7.86-7.79C301.19,545.82,303.8,549.46,303.8,553.46
			 M291.24,552.98c0,3.03,1.29,7.15,5.05,7.15c2.5,0,4.52-1.86,4.52-6.28c0-3.31-1.49-7.16-4.98-7.16
			C293.64,546.7,291.24,548.3,291.24,552.98"/>
	</g>
	<g>
		<defs>
			<rect id="SVGID_00000166662725938691264820000015842436322617393850_" x="258.54" y="115.74" width="236.37" height="459.23"/>
		</defs>
		<clipPath id="SVGID_00000017475703132899909950000013347948222004297108_">
			<use xlink:href="#SVGID_00000166662725938691264820000015842436322617393850_"  style="overflow:visible;"/>
		</clipPath>
		<path style="clip-path:url(#SVGID_00000017475703132899909950000013347948222004297108_);fill:#002677;" d="M314.97,549.33
			c0-2.33-0.2-2.37-1.23-2.55l-0.37-0.06c-0.15-0.15-0.13-0.53,0.04-0.61c0.88,0.04,1.87,0.07,2.83,0.07c0.99,0,1.98-0.02,2.94-0.07
			c0.18,0.09,0.2,0.46,0.04,0.61l-0.48,0.06c-1.03,0.13-1.23,0.22-1.23,2.55v5.03c0,3.03,0.92,5.58,3.97,5.58
			c2.88,0,4.06-2.17,4.06-5.51v-2.74c0-1.65-0.02-3.69-0.42-4.32c-0.2-0.33-0.55-0.48-1.1-0.57l-0.44-0.06
			c-0.2-0.15-0.17-0.55,0.04-0.61c0.74,0.04,1.58,0.07,2.43,0.07c0.92,0,1.52-0.02,2.33-0.07c0.18,0.11,0.22,0.46,0.04,0.61
			l-0.48,0.11c-0.42,0.09-0.81,0.18-0.96,0.53c-0.31,0.66-0.31,2.59-0.31,4.32v2.61c0,2-0.31,3.84-1.45,5.07s-2.79,1.65-4.3,1.65
			c-2.06,0-3.51-0.44-4.52-1.4c-0.99-0.94-1.45-2.48-1.45-4.7v-5.6H314.97z"/>
	</g>
	<g>
		<defs>
			<rect id="SVGID_00000160909389957544871210000002958499823958717363_" x="258.54" y="115.74" width="236.37" height="459.23"/>
		</defs>
		<clipPath id="SVGID_00000034796700339018099220000008126478067822372538_">
			<use xlink:href="#SVGID_00000160909389957544871210000002958499823958717363_"  style="overflow:visible;"/>
		</clipPath>
		<path style="clip-path:url(#SVGID_00000034796700339018099220000008126478067822372538_);fill:#002677;" d="M353.55,556.93
			c0,0.66,0,3.25,0.07,3.75c-0.18,0.24-0.57,0.33-0.83,0.31c-0.35-0.46-0.9-1.1-2.48-2.9l-5.14-5.86c-1.4-1.62-2.13-2.44-2.5-2.77
			c-0.07,0-0.07,0.24-0.07,1.4v4.28c0,1.65,0.02,3.67,0.39,4.32c0.2,0.33,0.57,0.48,1.12,0.55l0.48,0.07
			c0.2,0.15,0.18,0.57-0.04,0.64c-0.81-0.04-1.67-0.07-2.5-0.07c-0.92,0-1.52,0.02-2.28,0.07c-0.18-0.11-0.22-0.48-0.04-0.64
			l0.48-0.11c0.42-0.09,0.81-0.15,0.97-0.51c0.29-0.68,0.29-2.59,0.29-4.32v-5.2c0-1.71,0.02-2.06-0.72-2.7
			c-0.24-0.2-0.86-0.37-1.16-0.44l-0.33-0.07c-0.15-0.13-0.13-0.57,0.09-0.64c0.83,0.09,2.04,0.07,2.59,0.07
			c0.46,0,0.99-0.02,1.52-0.07c0.37,0.94,2.77,3.71,3.53,4.54l2.2,2.37c0.92,1.01,2.96,3.34,3.18,3.47
			c0.07-0.07,0.07-0.18,0.07-0.53v-4.28c0-1.65-0.02-3.66-0.42-4.32c-0.2-0.33-0.55-0.48-1.1-0.55l-0.51-0.07
			c-0.2-0.15-0.17-0.57,0.04-0.64c0.86,0.04,1.67,0.07,2.52,0.07c0.94,0,1.52-0.02,2.31-0.07c0.18,0.11,0.22,0.48,0.04,0.64
			l-0.5,0.11c-0.42,0.09-0.79,0.15-0.94,0.51c-0.31,0.68-0.31,2.59-0.31,4.32v5.27H353.55z"/>
	</g>
	<g>
		<defs>
			<rect id="SVGID_00000068645839857355678240000016230735625790608268_" x="258.54" y="115.74" width="236.37" height="459.23"/>
		</defs>
		<clipPath id="SVGID_00000024701035386769806780000004827488127791840155_">
			<use xlink:href="#SVGID_00000068645839857355678240000016230735625790608268_"  style="overflow:visible;"/>
		</clipPath>
		<path style="clip-path:url(#SVGID_00000024701035386769806780000004827488127791840155_);fill:#002677;" d="M366.83,549.46
			c0-2.11-0.02-2.42-1.05-2.5l-0.46-0.05c-0.15-0.11-0.15-0.51,0.02-0.61c1.58-0.13,3.34-0.2,5.49-0.2c2.09,0,3.58,0.17,5.18,0.74
			c2.63,0.97,4.5,3.29,4.5,6.57c0,2.44-1.21,4.94-3.93,6.32c-1.56,0.79-3.45,1.05-5.45,1.05c-1.34,0-2.37-0.13-3.18-0.13
			c-0.83,0-1.82,0.02-2.79,0.07c-0.18-0.09-0.2-0.48-0.04-0.64l0.48-0.07c1.03-0.13,1.23-0.2,1.23-2.52V549.46z M369.38,556.64
			c0,2.13,0.15,3.27,2.48,3.27c3.9,0,5.66-2.77,5.66-6.47c0-4.35-2.52-6.46-6.19-6.46c-0.92,0-1.62,0.18-1.78,0.31
			c-0.15,0.13-0.18,0.59-0.18,1.62L369.38,556.64L369.38,556.64z"/>
	</g>
	<g>
		<defs>
			<rect id="SVGID_00000007396743232336610410000004678476190949686400_" x="258.54" y="115.74" width="236.37" height="459.23"/>
		</defs>
		<clipPath id="SVGID_00000047032226100613238640000000630822530737433002_">
			<use xlink:href="#SVGID_00000007396743232336610410000004678476190949686400_"  style="overflow:visible;"/>
		</clipPath>
		<path style="clip-path:url(#SVGID_00000047032226100613238640000000630822530737433002_);fill:#002677;" d="M392.31,555.28
			c-0.57,0-0.55,0-0.74,0.59l-0.88,2.63c-0.44,1.3-0.15,1.34,0.66,1.47l0.64,0.11c0.15,0.15,0.13,0.55-0.05,0.64
			c-0.7-0.05-1.54-0.05-2.44-0.07c-0.72,0-1.4,0.02-2.17,0.07c-0.15-0.11-0.17-0.44-0.02-0.64l0.66-0.11
			c0.64-0.11,0.88-0.29,1.21-1.01c0.26-0.57,0.61-1.49,1.07-2.68l3.01-7.81c0.26-0.7,0.48-1.23,0.42-1.6
			c0.77-0.15,1.49-1.05,1.54-1.05c0.17,0,0.29,0.07,0.37,0.18c0.35,0.99,0.64,2.02,0.99,3.01l3.16,9.2c0.5,1.47,0.61,1.6,1.73,1.82
			l0.33,0.07c0.18,0.15,0.18,0.53,0.02,0.64c-0.9-0.05-1.71-0.07-2.86-0.07c-0.94,0-1.91,0.04-2.68,0.07
			c-0.18-0.11-0.2-0.51-0.07-0.64l0.48-0.07c0.79-0.11,0.9-0.24,0.57-1.16l-1.03-2.98c-0.2-0.59-0.29-0.59-0.9-0.59h-3.02V555.28z
			 M395.06,554.29c0.61,0,0.7-0.04,0.53-0.57l-0.92-2.63c-0.4-1.17-0.53-1.67-0.64-1.82h-0.05c-0.09,0.15-0.31,0.79-0.68,1.82
			l-0.99,2.57c-0.22,0.64-0.17,0.64,0.35,0.64h2.4V554.29z"/>
	</g>
	<g>
		<defs>
			<rect id="SVGID_00000003105500132878232020000018263659817117808540_" x="258.54" y="115.74" width="236.37" height="459.23"/>
		</defs>
		<clipPath id="SVGID_00000005971247332811303490000007072857128448532883_">
			<use xlink:href="#SVGID_00000003105500132878232020000018263659817117808540_"  style="overflow:visible;"/>
		</clipPath>
		<path style="clip-path:url(#SVGID_00000005971247332811303490000007072857128448532883_);fill:#002677;" d="M414.22,548.01
			c0-0.92-0.02-0.97-0.59-0.97h-1.23c-2.02,0-2.61,0.24-3.42,2.02c-0.15,0.13-0.62,0.07-0.7-0.15c0.37-1.18,0.7-2.55,0.85-3.31
			c0.04-0.07,0.13-0.09,0.24-0.09c0.09,0,0.18,0.02,0.22,0.09c0.11,0.55,0.42,0.57,1.91,0.57h8.95c1.08,0,1.4-0.07,1.67-0.57
			c0.09-0.04,0.17-0.09,0.26-0.09c0.13,0,0.24,0.04,0.29,0.11c-0.22,0.9-0.4,2.79-0.33,3.49c-0.11,0.18-0.48,0.22-0.68,0.07
			c-0.29-1.71-0.7-2.13-3.05-2.13h-1.25c-0.57,0-0.59,0.04-0.59,0.97v9.48c0,2.33,0.2,2.39,1.23,2.5l0.79,0.09
			c0.16,0.15,0.13,0.55-0.04,0.64c-1.27-0.04-2.26-0.07-3.23-0.07s-2,0.02-3.4,0.07c-0.18-0.09-0.2-0.53-0.04-0.64l0.92-0.11
			c1.03-0.13,1.23-0.15,1.23-2.48v-9.49H414.22z"/>
	</g>
	<g>
		<defs>
			<rect id="SVGID_00000145016232968500207490000008197982687593398422_" x="258.54" y="115.74" width="236.37" height="459.23"/>
		</defs>
		<clipPath id="SVGID_00000090288082115511204300000007038079368656215706_">
			<use xlink:href="#SVGID_00000145016232968500207490000008197982687593398422_"  style="overflow:visible;"/>
		</clipPath>
		<path style="clip-path:url(#SVGID_00000090288082115511204300000007038079368656215706_);fill:#002677;" d="M436.19,557.5
			c0,2.33,0.2,2.39,1.23,2.52l0.48,0.07c0.15,0.15,0.13,0.55-0.05,0.64c-0.97-0.04-1.95-0.07-2.92-0.07s-2,0.02-2.96,0.07
			c-0.18-0.09-0.2-0.48-0.04-0.64l0.48-0.07c1.03-0.13,1.23-0.2,1.23-2.52v-8.17c0-2.33-0.2-2.39-1.23-2.52l-0.48-0.07
			c-0.15-0.15-0.13-0.55,0.04-0.64c0.97,0.04,1.95,0.07,2.96,0.07c0.96,0,1.95-0.02,2.92-0.07c0.18,0.09,0.2,0.48,0.05,0.64
			l-0.48,0.07c-1.03,0.13-1.23,0.2-1.23,2.52V557.5z"/>
	</g>
	<g>
		<defs>
			<rect id="SVGID_00000088823062746288350970000017702921911138002610_" x="258.54" y="115.74" width="236.37" height="459.23"/>
		</defs>
		<clipPath id="SVGID_00000155844272145197978080000001508645029444427402_">
			<use xlink:href="#SVGID_00000088823062746288350970000017702921911138002610_"  style="overflow:visible;"/>
		</clipPath>
		<path style="clip-path:url(#SVGID_00000155844272145197978080000001508645029444427402_);fill:#002677;" d="M463.39,553.46
			c0,4.32-3.29,7.55-7.73,7.55c-4.96,0-7.81-3.49-7.81-7.4c0-4.48,3.25-7.79,7.86-7.79C460.78,545.82,463.39,549.46,463.39,553.46
			 M450.83,552.98c0,3.03,1.3,7.15,5.05,7.15c2.5,0,4.52-1.86,4.52-6.28c0-3.31-1.49-7.16-4.98-7.16
			C453.22,546.7,450.83,548.3,450.83,552.98"/>
	</g>
	<g>
		<defs>
			<rect id="SVGID_00000121968065871638488310000001047671514078496951_" x="258.54" y="115.74" width="236.37" height="459.23"/>
		</defs>
		<clipPath id="SVGID_00000156585015125724139480000012373377887936449694_">
			<use xlink:href="#SVGID_00000121968065871638488310000001047671514078496951_"  style="overflow:visible;"/>
		</clipPath>
		<path style="clip-path:url(#SVGID_00000156585015125724139480000012373377887936449694_);fill:#002677;" d="M485.42,556.93
			c0,0.66,0,3.25,0.07,3.75c-0.18,0.24-0.57,0.33-0.83,0.31c-0.35-0.46-0.9-1.1-2.48-2.9l-5.14-5.86c-1.4-1.62-2.13-2.44-2.5-2.77
			c-0.07,0-0.07,0.24-0.07,1.4v4.28c0,1.65,0.02,3.67,0.39,4.32c0.2,0.33,0.57,0.48,1.12,0.55l0.48,0.07
			c0.2,0.15,0.18,0.57-0.04,0.64c-0.81-0.04-1.67-0.07-2.5-0.07c-0.92,0-1.51,0.02-2.28,0.07c-0.18-0.11-0.22-0.48-0.04-0.64
			l0.48-0.11c0.42-0.09,0.81-0.15,0.97-0.51c0.29-0.68,0.29-2.59,0.29-4.32v-5.2c0-1.71,0.02-2.06-0.72-2.7
			c-0.24-0.2-0.86-0.37-1.16-0.44l-0.33-0.07c-0.15-0.13-0.13-0.57,0.09-0.64c0.83,0.09,2.04,0.07,2.59,0.07
			c0.46,0,0.99-0.02,1.52-0.07c0.37,0.94,2.77,3.71,3.53,4.54l2.19,2.37c0.92,1.01,2.96,3.34,3.18,3.47
			c0.07-0.07,0.07-0.18,0.07-0.53v-4.28c0-1.65-0.02-3.66-0.42-4.32c-0.2-0.33-0.55-0.48-1.1-0.55l-0.51-0.07
			c-0.2-0.15-0.17-0.57,0.04-0.64c0.86,0.04,1.67,0.07,2.52,0.07c0.94,0,1.51-0.02,2.3-0.07c0.18,0.11,0.22,0.48,0.04,0.64
			l-0.51,0.11c-0.42,0.09-0.79,0.15-0.94,0.51c-0.31,0.68-0.31,2.59-0.31,4.32v5.27H485.42z"/>
	</g>
	<g>
		<defs>
			<rect id="SVGID_00000164512551664777813580000014574111999498766990_" x="258.54" y="115.74" width="236.37" height="459.23"/>
		</defs>
		<clipPath id="SVGID_00000150070149223579110170000013337964832906072731_">
			<use xlink:href="#SVGID_00000164512551664777813580000014574111999498766990_"  style="overflow:visible;"/>
		</clipPath>
		<path style="clip-path:url(#SVGID_00000150070149223579110170000013337964832906072731_);fill:#002677;" d="M484.52,568.48
			c0-2.37,1.79-4.16,4.08-4.16c2.26,0,4.05,1.79,4.05,4.16c0,2.41-1.79,4.19-4.05,4.19C486.31,572.67,484.52,570.89,484.52,568.48
			 M488.61,573.5c2.72,0,5.06-2.12,5.06-5.02c0-2.88-2.33-4.99-5.06-4.99c-2.76,0-5.09,2.12-5.09,4.99
			C483.52,571.39,485.85,573.5,488.61,573.5 M487.54,568.88h1.01l1.52,2.5h0.98l-1.64-2.55c0.85-0.1,1.5-0.55,1.5-1.59
			c0-1.14-0.68-1.64-2.04-1.64h-2.2v5.78h0.87L487.54,568.88L487.54,568.88z M487.54,568.14v-1.79h1.19c0.61,0,1.26,0.14,1.26,0.85
			c0,0.89-0.66,0.94-1.4,0.94H487.54z"/>
	</g>
</g>
<line class="st35" x1="486.06" y1="620.19" x2="258.54" y2="620.19"/>
<line class="st36" x1="1325.21" y1="620.77" x2="631.03" y2="620.77"/>
</svg>
