<?xml version="1.0" encoding="UTF-8"?><svg id="midnight_blue" xmlns="http://www.w3.org/2000/svg" viewBox="0 0 128 128"><defs><style>.cls-1{fill:none;stroke:#002159;stroke-linecap:round;stroke-linejoin:round;stroke-width:4px;}</style></defs><path class="cls-1" d="M20.72,12H107.05c2.74,0,4.97,2.24,4.97,4.97v18.95c0,2.79-2.28,5.07-5.07,5.07h-13.61c-.17,0-.32,.14-.32,.32l-.05,9.4c0,.29-.35,.42-.55,.22l-9.47-9.84c-.06-.06-.14-.1-.23-.1h-14.05s-.05,.02-.06,.04l-4.99,10.33c-.03,.05-.1,.05-.13,0l-4.99-10.33s-.04-.04-.06-.04h-13.31s-.04,0-.05,.02l-9.94,10.35s-.12,.01-.12-.05l-.06-10.26s-.03-.07-.07-.07H17.14c-.61,0-1.12-.5-1.12-1.12V16.78c0-2.63,2.11-4.78,4.7-4.78h0Z"/><g><g><path class="cls-1" d="M39.02,106H13.32c0-10.16,8.25-18.39,18.4-18.38,5.85,0,11.36,2.79,14.82,7.52"/><path class="cls-1" d="M39.43,74.29c0,4.25-3.45,7.7-7.7,7.7s-7.7-3.45-7.7-7.7,3.45-7.7,7.7-7.7,7.7,3.45,7.7,7.7Z"/></g><g><path class="cls-1" d="M103.97,74.29c0,4.25-3.45,7.7-7.7,7.7s-7.7-3.45-7.7-7.7,3.45-7.7,7.7-7.7,7.7,3.45,7.7,7.7Z"/><path class="cls-1" d="M81.45,95.13c6.01-8.19,17.52-9.96,25.71-3.95,4.72,3.46,7.51,8.96,7.52,14.82h-25.65"/></g><path class="cls-1" d="M74.02,73.35c0,5.99-5.18,10.77-11.31,10.09-4.64-.51-8.42-4.29-8.93-8.93-.68-6.12,4.1-11.31,10.09-11.31h0c5.61,0,10.15,4.55,10.15,10.15h0Z"/><path class="cls-1" d="M91.02,116H37.54c0-14.65,11.88-26.53,26.53-26.53s26.53,11.88,26.53,26.53"/></g></svg>