<svg xmlns="http://www.w3.org/2000/svg" width="500" height="80"><path fill="#ea4335" d="M58.898 20.932h2.825l8.05-8.05.395-3.418c-9.376-8.276-22.362-11.124-34.34-7.53S14.574 15.048 11.3 27.12a4.38 4.38 0 0 1 2.825-.169l16.102-2.655s.82-1.356 1.243-1.27c7.162-7.866 19.216-8.783 27.486-2.1h-.056z"/><path fill="#4285f4" d="M81.243 27.12A36.27 36.27 0 0 0 70.311 9.492l-11.3 11.3c4.77 3.9 7.49 9.772 7.373 15.932v2.006a10.06 10.06 0 0 1 10.056 10.056 10.06 10.06 0 0 1-10.056 10.056H46.27l-2.006 2.034v12.062l2.006 2.006h20.113a26.16 26.16 0 0 0 14.859-47.825z"/><path fill="#34a853" d="M26.13 74.83h20.113V58.73H26.13a10 10 0 0 1-4.153-.904l-2.825.876-8.107 8.05-.706 2.825c4.546 3.433 10.094 5.28 15.79 5.254z"/><path fill="#fbbc05" d="M26.13 22.6a26.16 26.16 0 0 0-24.634 17.81 26.16 26.16 0 0 0 8.843 29.083l11.667-11.667C17.93 55.983 15.56 51.67 16.2 47.243s4.1-7.908 8.538-8.538 8.74 1.74 10.582 5.816l11.667-11.667A26.13 26.13 0 0 0 26.13 22.599z"/><path d="M146.3 63.588a25.73 25.73 0 0 1-18.644-7.655 24.86 24.86 0 0 1-7.825-18.418c-.084-6.964 2.754-13.644 7.825-18.418 4.892-5.032 11.626-7.85 18.644-7.797a24.97 24.97 0 0 1 17.881 7.203l-5.028 5.113a18.11 18.11 0 0 0-12.853-5.085 17.91 17.91 0 0 0-13.277 5.65 18.45 18.45 0 0 0-5.452 13.418c-.042 4.97 1.924 9.747 5.452 13.25 7.274 7.25 18.998 7.387 26.44.3a15.03 15.03 0 0 0 3.87-8.785h-16.95V35.14h23.983a22.94 22.94 0 0 1 .282 4.407 22.6 22.6 0 0 1-6.186 16.667 24.04 24.04 0 0 1-18.164 7.373zm55.763-4.802a17.29 17.29 0 0 1-23.927 0 16.1 16.1 0 0 1-4.887-12.006 16.13 16.13 0 0 1 4.887-12.006 17.32 17.32 0 0 1 23.927 0 16.13 16.13 0 0 1 4.887 12.006 16.1 16.1 0 0 1-4.915 12.006h.028zm-18.644-4.718c1.73 1.848 4.15 2.897 6.68 2.897s4.95-1.05 6.68-2.897c1.886-1.95 2.905-4.577 2.825-7.288.084-2.72-.935-5.36-2.825-7.316a9.29 9.29 0 0 0-6.71-2.862 9.3 9.3 0 0 0-6.71 2.862 10.04 10.04 0 0 0-2.825 7.316c-.072 2.715.957 5.344 2.853 7.288h.028zm55.424 4.718a17.29 17.29 0 0 1-23.927 0 16.1 16.1 0 0 1-4.887-12.006 16.13 16.13 0 0 1 4.887-12.006 17.29 17.29 0 0 1 23.927 0 16.13 16.13 0 0 1 4.887 12.006 16.1 16.1 0 0 1-4.887 12.006zM220.2 54.068c1.73 1.848 4.15 2.897 6.68 2.897s4.95-1.05 6.68-2.897c1.886-1.95 2.905-4.577 2.825-7.288.084-2.72-.935-5.36-2.825-7.316a9.29 9.29 0 0 0-6.71-2.862 9.3 9.3 0 0 0-6.71 2.862 10.04 10.04 0 0 0-2.825 7.316c-.072 2.715.957 5.344 2.853 7.288h.028zm42.825 24.605a14.8 14.8 0 0 1-9.407-2.994c-2.398-1.803-4.286-4.197-5.48-6.95l6.44-2.684c.7 1.645 1.797 3.1 3.192 4.2a8.05 8.05 0 0 0 5.282 1.78 8.47 8.47 0 0 0 6.582-2.542 10.31 10.31 0 0 0 2.345-7.345v-2.43h-.254a10.77 10.77 0 0 1-8.842 3.814 15.34 15.34 0 0 1-11.299-4.915 16.24 16.24 0 0 1-4.83-11.836c-.08-4.465 1.665-8.77 4.83-11.92a15.31 15.31 0 0 1 11.299-4.944 12.15 12.15 0 0 1 5.198 1.158 10.45 10.45 0 0 1 3.672 2.684h.254v-2.684h7.006V61.16a17.54 17.54 0 0 1-4.492 13.136 15.82 15.82 0 0 1-11.497 4.379zm.508-21.695a8.22 8.22 0 0 0 6.384-2.825 10.45 10.45 0 0 0 2.571-7.232 10.68 10.68 0 0 0-2.571-7.373 8.19 8.19 0 0 0-6.384-2.825 8.73 8.73 0 0 0-6.61 2.825 10.31 10.31 0 0 0-2.825 7.316c-.058 2.7.96 5.293 2.825 7.232 1.687 1.865 4.095 2.915 6.6 2.88zm27.938-43.785v49.38h-7.373v-49.38h7.373zm20.226 50.395a16.05 16.05 0 0 1-11.893-4.83c-3.164-3.17-4.9-7.5-4.774-11.977-.17-4.488 1.493-8.852 4.605-12.1a15.14 15.14 0 0 1 11.299-4.718 14.26 14.26 0 0 1 5.65 1.102c1.6.65 3.08 1.6 4.322 2.825a19.78 19.78 0 0 1 2.825 3.418 20.2 20.2 0 0 1 1.667 3.305l.763 1.92-22.6 9.294c1.4 3.215 4.633 5.236 8.136 5.085a9.63 9.63 0 0 0 8.277-4.66l5.65 3.814a18.59 18.59 0 0 1-5.424 5.14c-2.54 1.606-5.497 2.43-8.503 2.373zM302.26 46.27l15.028-6.243a5.2 5.2 0 0 0-2.345-2.571c-1.18-.666-2.515-1.007-3.87-1A8.73 8.73 0 0 0 305 39.153a8.95 8.95 0 0 0-2.74 7.12zm62.514 17.316a23.24 23.24 0 0 1-16.9-6.863 23.35 23.35 0 0 1-6.762-16.95 23.28 23.28 0 0 1 6.762-16.95c4.467-4.494 10.574-6.973 16.9-6.863a21.07 21.07 0 0 1 16.75 7.458l-4.068 3.955c-3.053-3.84-7.754-6-12.655-5.8a17.26 17.26 0 0 0-12.571 5.028 17.63 17.63 0 0 0-5.113 13.164 17.63 17.63 0 0 0 5.113 13.164 17.26 17.26 0 0 0 12.571 5.028 17.99 17.99 0 0 0 14.124-6.6l4.068 4.068c-2.13 2.547-4.804 4.584-7.825 5.96-3.257 1.503-6.8 2.256-10.395 2.203zm29.153-1.016h-5.848V16.95h5.848zm9.548-27.457a16.36 16.36 0 0 1 23.051 0 16.53 16.53 0 0 1 4.52 11.864 16.52 16.52 0 0 1-4.52 11.864 16.36 16.36 0 0 1-23.051 0 16.53 16.53 0 0 1-4.52-11.864 16.52 16.52 0 0 1 4.52-11.864zm4.35 20.056a9.86 9.86 0 0 0 14.322 0 11.3 11.3 0 0 0 3.023-8.192 11.3 11.3 0 0 0-3.023-8.192 9.86 9.86 0 0 0-14.322 0 11.3 11.3 0 0 0-3.023 8.192 11.3 11.3 0 0 0 3.051 8.164l-.028.028zm55.62 7.4h-5.65v-4.32h-.17a10.88 10.88 0 0 1-4.124 3.898c-1.76 1.02-3.757 1.556-5.8 1.554a10.99 10.99 0 0 1-8.87-3.559 14.13 14.13 0 0 1-3.023-9.548v-19.2h5.847V49.52c0 5.82 2.57 8.73 7.712 8.73 2.318.072 4.527-.98 5.932-2.825a10.65 10.65 0 0 0 2.288-6.751v-17.3h5.847V62.57zm19.86 1.017a13.73 13.73 0 0 1-10.452-4.774 16.95 16.95 0 0 1-4.379-11.836 16.95 16.95 0 0 1 4.379-11.836 13.73 13.73 0 0 1 10.452-4.774 13.25 13.25 0 0 1 6.384 1.525 10.82 10.82 0 0 1 4.237 3.814h.254l-.254-4.322V16.95h5.847v45.62h-5.65v-4.32h-.254a10.82 10.82 0 0 1-4.237 3.814 13.25 13.25 0 0 1-6.328 1.525zm.96-5.34a9.32 9.32 0 0 0 7.034-3.051 11.44 11.44 0 0 0 2.825-8.22 11.44 11.44 0 0 0-2.825-8.22 9.55 9.55 0 0 0-14.124 0 11.3 11.3 0 0 0-2.825 8.192 11.3 11.3 0 0 0 2.825 8.192 9.32 9.32 0 0 0 7.09 3.107z" fill="#5f6368"/></svg>